  0
SECTION
  2
HEADER
  9
$ACADVER
  1
AC1012
  9
$DWGCODEPAGE
  3
ansi_1252
  9
$INSBASE
 10
0.0
 20
0.0
 30
0.0
  9
$EXTMIN
 10
1.000000000000000E+20
 20
1.000000000000000E+20
 30
1.000000000000000E+20
  9
$EXTMAX
 10
-1.000000000000000E+20
 20
-1.000000000000000E+20
 30
-1.000000000000000E+20
  9
$LIMMIN
 10
0.0
 20
0.0
  9
$LIMMAX
 10
12.0
 20
9.0
  9
$ORTHOMODE
 70
     0
  9
$REGENMODE
 70
     1
  9
$FILLMODE
 70
     1
  9
$QTEXTMODE
 70
     0
  9
$MIRRTEXT
 70
     1
  9
$DRAGMODE
 70
     2
  9
$LTSCALE
 40
1.0
  9
$OSMODE
 70
    37
  9
$ATTMODE
 70
     1
  9
$TEXTSIZE
 40
0.2
  9
$TRACEWID
 40
0.05
  9
$TEXTSTYLE
  7
STANDARD
  9
$CLAYER
  8
0
  9
$CELTYPE
  6
BYLAYER
  9
$CECOLOR
 62
   256
  9
$CELTSCALE
 40
1.0
  9
$DELOBJ
 70
     1
  9
$DISPSILH
 70
     0
  9
$DIMSCALE
 40
1.0
  9
$DIMASZ
 40
0.18
  9
$DIMEXO
 40
0.0625
  9
$DIMDLI
 40
0.38
  9
$DIMRND
 40
0.0
  9
$DIMDLE
 40
0.0
  9
$DIMEXE
 40
0.18
  9
$DIMTP
 40
0.0
  9
$DIMTM
 40
0.0
  9
$DIMTXT
 40
0.18
  9
$DIMCEN
 40
0.09
  9
$DIMTSZ
 40
0.0
  9
$DIMTOL
 70
     0
  9
$DIMLIM
 70
     0
  9
$DIMTIH
 70
     1
  9
$DIMTOH
 70
     1
  9
$DIMSE1
 70
     0
  9
$DIMSE2
 70
     0
  9
$DIMTAD
 70
     0
  9
$DIMZIN
 70
     0
  9
$DIMBLK
  1

  9
$DIMASO
 70
     1
  9
$DIMSHO
 70
     1
  9
$DIMPOST
  1

  9
$DIMAPOST
  1

  9
$DIMALT
 70
     0
  9
$DIMALTD
 70
     2
  9
$DIMALTF
 40
25.4
  9
$DIMLFAC
 40
1.0
  9
$DIMTOFL
 70
     0
  9
$DIMTVP
 40
0.0
  9
$DIMTIX
 70
     0
  9
$DIMSOXD
 70
     0
  9
$DIMSAH
 70
     0
  9
$DIMBLK1
  1

  9
$DIMBLK2
  1

  9
$DIMSTYLE
  2
STANDARD
  9
$DIMCLRD
 70
     0
  9
$DIMCLRE
 70
     0
  9
$DIMCLRT
 70
     0
  9
$DIMTFAC
 40
1.0
  9
$DIMGAP
 40
0.09
  9
$DIMJUST
 70
     0
  9
$DIMSD1
 70
     0
  9
$DIMSD2
 70
     0
  9
$DIMTOLJ
 70
     1
  9
$DIMTZIN
 70
     0
  9
$DIMALTZ
 70
     0
  9
$DIMALTTZ
 70
     0
  9
$DIMFIT
 70
     3
  9
$DIMUPT
 70
     0
  9
$DIMUNIT
 70
     2
  9
$DIMDEC
 70
     4
  9
$DIMTDEC
 70
     4
  9
$DIMALTU
 70
     2
  9
$DIMALTTD
 70
     2
  9
$DIMTXSTY
  7
STANDARD
  9
$DIMAUNIT
 70
     0
  9
$LUNITS
 70
     2
  9
$LUPREC
 70
     4
  9
$SKETCHINC
 40
0.1
  9
$FILLETRAD
 40
0.5
  9
$AUNITS
 70
     0
  9
$AUPREC
 70
     0
  9
$MENU
  1
.
  9
$ELEVATION
 40
0.0
  9
$PELEVATION
 40
0.0
  9
$THICKNESS
 40
0.0
  9
$LIMCHECK
 70
     0
  9
$CHAMFERA
 40
0.0
  9
$CHAMFERB
 40
0.0
  9
$CHAMFERC
 40
0.0
  9
$CHAMFERD
 40
0.0
  9
$SKPOLY
 70
     0
  9
$TDCREATE
 40
2460157.779962593
  9
$TDUPDATE
 40
2460157.779962778
  9
$TDINDWG
 40
0.0000000116
  9
$TDUSRTIMER
 40
0.0000000116
  9
$USRTIMER
 70
     1
  9
$ANGBASE
 50
0.0
  9
$ANGDIR
 70
     0
  9
$PDMODE
 70
     0
  9
$PDSIZE
 40
0.0
  9
$PLINEWID
 40
0.0
  9
$COORDS
 70
     1
  9
$SPLFRAME
 70
     0
  9
$SPLINETYPE
 70
     6
  9
$SPLINESEGS
 70
     8
  9
$ATTDIA
 70
     0
  9
$ATTREQ
 70
     1
  9
$HANDLING
 70
     1
  9
$HANDSEED
  5
17F
  9
$SURFTAB1
 70
     6
  9
$SURFTAB2
 70
     6
  9
$SURFTYPE
 70
     6
  9
$SURFU
 70
     6
  9
$SURFV
 70
     6
  9
$UCSNAME
  2

  9
$UCSORG
 10
0.0
 20
0.0
 30
0.0
  9
$UCSXDIR
 10
1.0
 20
0.0
 30
0.0
  9
$UCSYDIR
 10
0.0
 20
1.0
 30
0.0
  9
$PUCSNAME
  2

  9
$PUCSORG
 10
0.0
 20
0.0
 30
0.0
  9
$PUCSXDIR
 10
1.0
 20
0.0
 30
0.0
  9
$PUCSYDIR
 10
0.0
 20
1.0
 30
0.0
  9
$USERI1
 70
     0
  9
$USERI2
 70
     0
  9
$USERI3
 70
     0
  9
$USERI4
 70
     0
  9
$USERI5
 70
     0
  9
$USERR1
 40
0.0
  9
$USERR2
 40
0.0
  9
$USERR3
 40
0.0
  9
$USERR4
 40
0.0
  9
$USERR5
 40
0.0
  9
$WORLDVIEW
 70
     1
  9
$SHADEDGE
 70
     3
  9
$SHADEDIF
 70
    70
  9
$TILEMODE
 70
     1
  9
$MAXACTVP
 70
    64
  9
$PINSBASE
 10
0.0
 20
0.0
 30
0.0
  9
$PLIMCHECK
 70
     0
  9
$PEXTMIN
 10
1.000000000000000E+20
 20
1.000000000000000E+20
 30
1.000000000000000E+20
  9
$PEXTMAX
 10
-1.000000000000000E+20
 20
-1.000000000000000E+20
 30
-1.000000000000000E+20
  9
$PLIMMIN
 10
0.0
 20
0.0
  9
$PLIMMAX
 10
12.0
 20
9.0
  9
$UNITMODE
 70
     0
  9
$VISRETAIN
 70
     1
  9
$PLINEGEN
 70
     0
  9
$PSLTSCALE
 70
     1
  9
$TREEDEPTH
 70
  3020
  9
$PICKSTYLE
 70
     1
  9
$CMLSTYLE
  2
STANDARD
  9
$CMLJUST
 70
     0
  9
$CMLSCALE
 40
1.0
  9
$SAVEIMAGES
 70
     1
  0
ENDSEC
  0
SECTION
  2
CLASSES
  0
CLASS
  1
ACDBDICTIONARYWDFLT
  2
AcDbDictionaryWithDefault
  3
ObjectDBX Classes
 90
    32768
280
     0
281
     0
  0
CLASS
  1
VISUALSTYLE
  2
AcDbVisualStyle
  3
ObjectDBX Classes
 90
     4095
280
     0
281
     0
  0
CLASS
  1
MATERIAL
  2
AcDbMaterial
  3
ObjectDBX Classes
 90
     1153
280
     0
281
     0
  0
CLASS
  1
SCALE
  2
AcDbScale
  3
ObjectDBX Classes
 90
     1153
280
     0
281
     0
  0
CLASS
  1
TABLESTYLE
  2
AcDbTableStyle
  3
ObjectDBX Classes
 90
     4095
280
     0
281
     0
  0
CLASS
  1
MLEADERSTYLE
  2
AcDbMLeaderStyle
  3
ACDB_MLEADERSTYLE_CLASS
 90
     4095
280
     0
281
     0
  0
CLASS
  1
SUN
  2
AcDbSun
  3
SCENEOE
 90
     1153
280
     0
281
     0
  0
CLASS
  1
DICTIONARYVAR
  2
AcDbDictionaryVar
  3
ObjectDBX Classes
 90
        0
280
     0
281
     0
  0
CLASS
  1
XRECORD
  2
AcDbXrecord
  3
ObjectDBX Classes
 90
    32768
280
     0
281
     0
  0
CLASS
  1
LWPOLYLINE
  2
AcDbPolyline
  3
ObjectDBX Classes
 90
    32768
280
     0
281
     1
  0
CLASS
  1
HATCH
  2
AcDbHatch
  3
ObjectDBX Classes
 90
    32768
280
     0
281
     1
  0
CLASS
  1
ACDBPLACEHOLDER
  2
AcDbPlaceHolder
  3
ObjectDBX Classes
 90
        0
280
     0
281
     0
  0
CLASS
  1
LAYOUT
  2
AcDbLayout
  3
ObjectDBX Classes
 90
        0
280
     0
281
     0
  0
ENDSEC
  0
SECTION
  2
TABLES
  0
TABLE
  2
VPORT
  5
8
330
0
100
AcDbSymbolTable
 70
     1
  0
VPORT
  5
29
330
8
100
AcDbSymbolTableRecord
100
AcDbViewportTableRecord
  2
*ACTIVE
 70
     0
 10
0.0
 20
0.0
 11
1.0
 21
1.0
 12
10.42990654205607
 22
4.5
 13
0.0
 23
0.0
 14
0.5
 24
0.5
 15
0.5
 25
0.5
 16
0.0
 26
0.0
 36
1.0
 17
0.0
 27
0.0
 37
0.0
 40
9.0
 41
1.972972972850329
 42
50.0
 43
0.0
 44
0.0
 50
0.0
 51
0.0
 71
     0
 72
   100
 73
     1
 74
     3
 75
     0
 76
     0
 77
     0
 78
     0
  0
ENDTAB
  0
TABLE
  2
LTYPE
  5
5
330
0
100
AcDbSymbolTable
 70
     1
  0
LTYPE
  5
14
330
5
100
AcDbSymbolTableRecord
100
AcDbLinetypeTableRecord
  2
BYBLOCK
 70
     0
  3

 72
    65
 73
     0
 40
0.0
  0
LTYPE
  5
15
330
5
100
AcDbSymbolTableRecord
100
AcDbLinetypeTableRecord
  2
BYLAYER
 70
     0
  3

 72
    65
 73
     0
 40
0.0
  0
LTYPE
  5
16
330
5
100
AcDbSymbolTableRecord
100
AcDbLinetypeTableRecord
  2
CONTINUOUS
 70
     0
  3
Solid line
 72
    65
 73
     0
 40
0.0
  0
ENDTAB
  0
TABLE
  2
LAYER
  5
2
330
0
100
AcDbSymbolTable
 70
     2
  0
LAYER
  5
10
330
2
100
AcDbSymbolTableRecord
100
AcDbLayerTableRecord
  2
0
 70
     0
 62
     7
  6
CONTINUOUS
  0
LAYER
  5
6E
330
2
100
AcDbSymbolTableRecord
100
AcDbLayerTableRecord
  2
ANSYS_LOGO_2D
 70
     0
 62
    10
  6
CONTINUOUS
  0
ENDTAB
  0
TABLE
  2
STYLE
  5
3
330
0
100
AcDbSymbolTable
 70
     1
  0
STYLE
  5
11
330
3
100
AcDbSymbolTableRecord
100
AcDbTextStyleTableRecord
  2
STANDARD
 70
     0
 40
0.0
 41
1.0
 50
0.0
 71
     0
 42
0.2
  3
txt
  4

  0
ENDTAB
  0
TABLE
  2
VIEW
  5
6
330
0
100
AcDbSymbolTable
 70
     0
  0
ENDTAB
  0
TABLE
  2
UCS
  5
7
330
0
100
AcDbSymbolTable
 70
     0
  0
ENDTAB
  0
TABLE
  2
APPID
  5
9
330
0
100
AcDbSymbolTable
 70
     2
  0
APPID
  5
12
330
9
100
AcDbSymbolTableRecord
100
AcDbRegAppTableRecord
  2
ACAD
 70
     0
  0
APPID
  5
17E
330
9
100
AcDbSymbolTableRecord
100
AcDbRegAppTableRecord
  2
ACAD_MLEADERVER
 70
     0
  0
ENDTAB
  0
TABLE
  2
DIMSTYLE
  5
A
330
0
100
AcDbSymbolTable
 70
     1
  0
DIMSTYLE
105
27
330
A
100
AcDbSymbolTableRecord
100
AcDbDimStyleTableRecord
  2
STANDARD
 70
     0
  3

  4

  5

  6

  7

 40
1.0
 41
0.18
 42
0.0625
 43
0.38
 44
0.18
 45
0.0
 46
0.0
 47
0.0
 48
0.0
140
0.18
141
0.09
142
0.0
143
25.4
144
1.0
145
0.0
146
1.0
147
0.09
 71
     0
 72
     0
 73
     1
 74
     1
 75
     0
 76
     0
 77
     0
 78
     0
170
     0
171
     2
172
     0
173
     0
174
     0
175
     0
176
     0
177
     0
178
     0
270
     2
271
     4
272
     4
273
     2
274
     2
340
11
275
     0
280
     0
281
     0
282
     0
283
     1
284
     0
285
     0
286
     0
287
     3
288
     0
  0
ENDTAB
  0
TABLE
  2
BLOCK_RECORD
  5
1
330
0
100
AcDbSymbolTable
 70
     0
  0
BLOCK_RECORD
  5
1F
330
1
100
AcDbSymbolTableRecord
100
AcDbBlockTableRecord
  2
*MODEL_SPACE
  0
BLOCK_RECORD
  5
1B
330
1
100
AcDbSymbolTableRecord
100
AcDbBlockTableRecord
  2
*PAPER_SPACE
  0
ENDTAB
  0
ENDSEC
  0
SECTION
  2
BLOCKS
  0
BLOCK
  5
20
330
1F
100
AcDbEntity
  8
0
100
AcDbBlockBegin
  2
*MODEL_SPACE
 70
     0
 10
0.0
 20
0.0
 30
0.0
  3
*MODEL_SPACE
  1

  0
ENDBLK
  5
21
330
1F
100
AcDbEntity
  8
0
100
AcDbBlockEnd
  0
BLOCK
  5
1C
330
1B
100
AcDbEntity
 67
     1
  8
0
100
AcDbBlockBegin
  2
*PAPER_SPACE
 70
     0
 10
0.0
 20
0.0
 30
0.0
  3
*PAPER_SPACE
  1

  0
ENDBLK
  5
1D
330
1B
100
AcDbEntity
 67
     1
  8
0
100
AcDbBlockEnd
  0
ENDSEC
  0
SECTION
  2
ENTITIES
  0
POLYLINE
  5
6F
330
1F
100
AcDbEntity
  8
ANSYS_LOGO_2D
100
AcDb2dPolyline
 66
     1
 10
0.0
 20
0.0
 30
0.0
 70
     1
  0
VERTEX
  5
70
330
6F
100
AcDbEntity
  8
0
100
AcDbVertex
100
AcDb2dVertex
 10
-55.9339104502781
 20
24.82630879149065
 30
0.0
  0
VERTEX
  5
71
330
6F
100
AcDbEntity
  8
0
100
AcDbVertex
100
AcDb2dVertex
 10
-55.7869198707966
 20
25.2133554457356
 30
0.0
  0
VERTEX
  5
72
330
6F
100
AcDbEntity
  8
0
100
AcDbVertex
100
AcDb2dVertex
 10
-66.5660486657605
 20
25.2133554457356
 30
0.0
  0
VERTEX
  5
73
330
6F
100
AcDbEntity
  8
0
100
AcDbVertex
100
AcDb2dVertex
 10
-82.6525450301978
 20
-14.42473912930746
 30
0.0
  0
VERTEX
  5
74
330
6F
100
AcDbEntity
  8
0
100
AcDbVertex
100
AcDb2dVertex
 10
-71.8633300262589
 20
-14.42473912930748
 30
0.0
  0
VERTEX
  5
75
330
6F
100
AcDbEntity
  8
0
100
AcDbVertex
100
AcDb2dVertex
 10
-55.9339104502781
 20
24.82630879149065
 30
0.0
  0
SEQEND
  5
76
330
6F
100
AcDbEntity
  8
ANSYS_LOGO_2D
  0
POLYLINE
  5
77
330
1F
100
AcDbEntity
  8
ANSYS_LOGO_2D
100
AcDb2dPolyline
 66
     1
 10
0.0
 20
0.0
 30
0.0
 70
     1
  0
VERTEX
  5
78
330
77
100
AcDbEntity
  8
0
100
AcDbVertex
100
AcDb2dVertex
 10
77.0657287011303
 20
-8.28199175189677
 30
0.0
  0
VERTEX
  5
79
330
77
100
AcDbEntity
  8
0
100
AcDbVertex
100
AcDb2dVertex
 10
77.2601257400075
 20
-6.724370497495091
 30
0.0
  0
VERTEX
  5
7A
330
77
100
AcDbEntity
  8
0
100
AcDbVertex
100
AcDb2dVertex
 10
77.2395276403366
 20
-5.17499728432816
 30
0.0
  0
VERTEX
  5
7B
330
77
100
AcDbEntity
  8
0
100
AcDbVertex
100
AcDb2dVertex
 10
76.8775440231135
 20
-3.691498340514085
 30
0.0
  0
VERTEX
  5
7C
330
77
100
AcDbEntity
  8
0
100
AcDbVertex
100
AcDb2dVertex
 10
76.1457544286505
 20
-2.324872099610405
 30
0.0
  0
VERTEX
  5
7D
330
77
100
AcDbEntity
  8
0
100
AcDbVertex
100
AcDb2dVertex
 10
75.14709633961161
 20
-1.120084023543304
 30
0.0
  0
VERTEX
  5
7E
330
77
100
AcDbEntity
  8
0
100
AcDbVertex
100
AcDb2dVertex
 10
73.96643907520469
 20
-0.1057874595582866
 30
0.0
  0
VERTEX
  5
7F
330
77
100
AcDbEntity
  8
0
100
AcDbVertex
100
AcDb2dVertex
 10
71.9530517521719
 20
1.0507102758051
 30
0.0
  0
VERTEX
  5
80
330
77
100
AcDbEntity
  8
0
100
AcDbVertex
100
AcDb2dVertex
 10
69.75120345629689
 20
1.78496356805843
 30
0.0
  0
VERTEX
  5
81
330
77
100
AcDbEntity
  8
0
100
AcDbVertex
100
AcDb2dVertex
 10
67.50782739844479
 20
2.25059741906921
 30
0.0
  0
VERTEX
  5
82
330
77
100
AcDbEntity
  8
0
100
AcDbVertex
100
AcDb2dVertex
 10
64.6015605545115
 20
2.91209177182465
 30
0.0
  0
VERTEX
  5
83
330
77
100
AcDbEntity
  8
0
100
AcDbVertex
100
AcDb2dVertex
 10
63.8027029110301
 20
3.1344890989718
 30
0.0
  0
VERTEX
  5
84
330
77
100
AcDbEntity
  8
0
100
AcDbVertex
100
AcDb2dVertex
 10
62.9747649923852
 20
3.39095703238282
 30
0.0
  0
VERTEX
  5
85
330
77
100
AcDbEntity
  8
0
100
AcDbVertex
100
AcDb2dVertex
 10
62.2091792088999
 20
3.738501951475929
 30
0.0
  0
VERTEX
  5
86
330
77
100
AcDbEntity
  8
0
100
AcDbVertex
100
AcDb2dVertex
 10
61.82385547390851
 20
4.054765399953404
 30
0.0
  0
VERTEX
  5
87
330
77
100
AcDbEntity
  8
0
100
AcDbVertex
100
AcDb2dVertex
 10
61.5759256357801
 20
4.472560795817524
 30
0.0
  0
VERTEX
  5
88
330
77
100
AcDbEntity
  8
0
100
AcDbVertex
100
AcDb2dVertex
 10
61.48477460306591
 20
4.981379608181769
 30
0.0
  0
VERTEX
  5
89
330
77
100
AcDbEntity
  8
0
100
AcDbVertex
100
AcDb2dVertex
 10
61.5269724845365
 20
5.50891529746895
 30
0.0
  0
VERTEX
  5
8A
330
77
100
AcDbEntity
  8
0
100
AcDbVertex
100
AcDb2dVertex
 10
61.9128481436378
 20
6.46070895816152
 30
0.0
  0
VERTEX
  5
8B
330
77
100
AcDbEntity
  8
0
100
AcDbVertex
100
AcDb2dVertex
 10
62.58151566719751
 20
7.24962977717719
 30
0.0
  0
VERTEX
  5
8C
330
77
100
AcDbEntity
  8
0
100
AcDbVertex
100
AcDb2dVertex
 10
63.3233040302356
 20
7.641993745420769
 30
0.0
  0
VERTEX
  5
8D
330
77
100
AcDbEntity
  8
0
100
AcDbVertex
100
AcDb2dVertex
 10
64.1798333487506
 20
7.793493001929599
 30
0.0
  0
VERTEX
  5
8E
330
77
100
AcDbEntity
  8
0
100
AcDbVertex
100
AcDb2dVertex
 10
65.08500611223849
 20
7.80380019388205
 30
0.0
  0
VERTEX
  5
8F
330
77
100
AcDbEntity
  8
0
100
AcDbVertex
100
AcDb2dVertex
 10
65.9815426494176
 20
7.759548434612551
 30
0.0
  0
VERTEX
  5
90
330
77
100
AcDbEntity
  8
0
100
AcDbVertex
100
AcDb2dVertex
 10
68.6699636450408
 20
7.36809171550312
 30
0.0
  0
VERTEX
  5
91
330
77
100
AcDbEntity
  8
0
100
AcDbVertex
100
AcDb2dVertex
 10
70.59978369847539
 20
6.77044406141873
 30
0.0
  0
VERTEX
  5
92
330
77
100
AcDbEntity
  8
0
100
AcDbVertex
100
AcDb2dVertex
 10
72.46585992125749
 20
5.92800103676746
 30
0.0
  0
VERTEX
  5
93
330
77
100
AcDbEntity
  8
0
100
AcDbVertex
100
AcDb2dVertex
 10
74.2998177493324
 20
4.95884446516796
 30
0.0
  0
VERTEX
  5
94
330
77
100
AcDbEntity
  8
0
100
AcDbVertex
100
AcDb2dVertex
 10
76.4010339814249
 20
10.2736855228136
 30
0.0
  0
VERTEX
  5
95
330
77
100
AcDbEntity
  8
0
100
AcDbVertex
100
AcDb2dVertex
 10
74.5336152381188
 20
11.63148459844814
 30
0.0
  0
VERTEX
  5
96
330
77
100
AcDbEntity
  8
0
100
AcDbVertex
100
AcDb2dVertex
 10
72.4721728910792
 20
12.61158163853856
 30
0.0
  0
VERTEX
  5
97
330
77
100
AcDbEntity
  8
0
100
AcDbVertex
100
AcDb2dVertex
 10
70.22822694768
 20
13.1951236759789
 30
0.0
  0
VERTEX
  5
98
330
77
100
AcDbEntity
  8
0
100
AcDbVertex
100
AcDb2dVertex
 10
67.90882636448801
 20
13.5299588983223
 30
0.0
  0
VERTEX
  5
99
330
77
100
AcDbEntity
  8
0
100
AcDbVertex
100
AcDb2dVertex
 10
65.59683783854659
 20
13.68974685219592
 30
0.0
  0
VERTEX
  5
9A
330
77
100
AcDbEntity
  8
0
100
AcDbVertex
100
AcDb2dVertex
 10
63.3125241934269
 20
13.55830132822022
 30
0.0
  0
VERTEX
  5
9B
330
77
100
AcDbEntity
  8
0
100
AcDbVertex
100
AcDb2dVertex
 10
61.62010205280329
 20
13.2254368202107
 30
0.0
  0
VERTEX
  5
9C
330
77
100
AcDbEntity
  8
0
100
AcDbVertex
100
AcDb2dVertex
 10
59.9400056521066
 20
12.75924788511548
 30
0.0
  0
VERTEX
  5
9D
330
77
100
AcDbEntity
  8
0
100
AcDbVertex
100
AcDb2dVertex
 10
58.3147211979771
 20
12.14580465698184
 30
0.0
  0
VERTEX
  5
9E
330
77
100
AcDbEntity
  8
0
100
AcDbVertex
100
AcDb2dVertex
 10
56.85893955820951
 20
11.23589278032692
 30
0.0
  0
VERTEX
  5
9F
330
77
100
AcDbEntity
  8
0
100
AcDbVertex
100
AcDb2dVertex
 10
55.6484915926608
 20
9.98829842724347
 30
0.0
  0
VERTEX
  5
A0
330
77
100
AcDbEntity
  8
0
100
AcDbVertex
100
AcDb2dVertex
 10
54.70011487394289
 20
8.51906029580331
 30
0.0
  0
VERTEX
  5
A1
330
77
100
AcDbEntity
  8
0
100
AcDbVertex
100
AcDb2dVertex
 10
54.04426511386809
 20
6.917469271252529
 30
0.0
  0
VERTEX
  5
A2
330
77
100
AcDbEntity
  8
0
100
AcDbVertex
100
AcDb2dVertex
 10
53.74039752691411
 20
5.213889982707079
 30
0.0
  0
VERTEX
  5
A3
330
77
100
AcDbEntity
  8
0
100
AcDbVertex
100
AcDb2dVertex
 10
53.80617055929869
 20
3.675031346197305
 30
0.0
  0
VERTEX
  5
A4
330
77
100
AcDbEntity
  8
0
100
AcDbVertex
100
AcDb2dVertex
 10
54.2021057164005
 20
2.18667406832315
 30
0.0
  0
VERTEX
  5
A5
330
77
100
AcDbEntity
  8
0
100
AcDbVertex
100
AcDb2dVertex
 10
54.893633737041
 20
0.8010736687909069
 30
0.0
  0
VERTEX
  5
A6
330
77
100
AcDbEntity
  8
0
100
AcDbVertex
100
AcDb2dVertex
 10
55.8414945352791
 20
-0.4185585882888185
 30
0.0
  0
VERTEX
  5
A7
330
77
100
AcDbEntity
  8
0
100
AcDbVertex
100
AcDb2dVertex
 10
57.01492583337251
 20
-1.37854016536662
 30
0.0
  0
VERTEX
  5
A8
330
77
100
AcDbEntity
  8
0
100
AcDbVertex
100
AcDb2dVertex
 10
58.3684505350312
 20
-2.0731848810979
 30
0.0
  0
VERTEX
  5
A9
330
77
100
AcDbEntity
  8
0
100
AcDbVertex
100
AcDb2dVertex
 10
60.3523315845613
 20
-2.70606906163617
 30
0.0
  0
VERTEX
  5
AA
330
77
100
AcDbEntity
  8
0
100
AcDbVertex
100
AcDb2dVertex
 10
62.413370014015
 20
-3.157927819659609
 30
0.0
  0
VERTEX
  5
AB
330
77
100
AcDbEntity
  8
0
100
AcDbVertex
100
AcDb2dVertex
 10
64.43944961004429
 20
-3.57434174116966
 30
0.0
  0
VERTEX
  5
AC
330
77
100
AcDbEntity
  8
0
100
AcDbVertex
100
AcDb2dVertex
 10
65.9236798559145
 20
-3.90502233844788
 30
0.0
  0
VERTEX
  5
AD
330
77
100
AcDbEntity
  8
0
100
AcDbVertex
100
AcDb2dVertex
 10
67.3821092564452
 20
-4.28890793506985
 30
0.0
  0
VERTEX
  5
AE
330
77
100
AcDbEntity
  8
0
100
AcDbVertex
100
AcDb2dVertex
 10
68.1132438997306
 20
-4.54765624437066
 30
0.0
  0
VERTEX
  5
AF
330
77
100
AcDbEntity
  8
0
100
AcDbVertex
100
AcDb2dVertex
 10
68.8473275653384
 20
-4.89183460634543
 30
0.0
  0
VERTEX
  5
B0
330
77
100
AcDbEntity
  8
0
100
AcDbVertex
100
AcDb2dVertex
 10
69.4410294807075
 20
-5.383017269361829
 30
0.0
  0
VERTEX
  5
B1
330
77
100
AcDbEntity
  8
0
100
AcDbVertex
100
AcDb2dVertex
 10
69.6047347064253
 20
-5.71005926781828
 30
0.0
  0
VERTEX
  5
B2
330
77
100
AcDbEntity
  8
0
100
AcDbVertex
100
AcDb2dVertex
 10
69.66025097710819
 20
-6.08699116066573
 30
0.0
  0
VERTEX
  5
B3
330
77
100
AcDbEntity
  8
0
100
AcDbVertex
100
AcDb2dVertex
 10
69.54362321348451
 20
-6.795409557834481
 30
0.0
  0
VERTEX
  5
B4
330
77
100
AcDbEntity
  8
0
100
AcDbVertex
100
AcDb2dVertex
 10
69.23065635327671
 20
-7.42787922627061
 30
0.0
  0
VERTEX
  5
B5
330
77
100
AcDbEntity
  8
0
100
AcDbVertex
100
AcDb2dVertex
 10
68.76755645350899
 20
-7.92131688700931
 30
0.0
  0
VERTEX
  5
B6
330
77
100
AcDbEntity
  8
0
100
AcDbVertex
100
AcDb2dVertex
 10
67.862275418232
 20
-8.39831099700093
 30
0.0
  0
VERTEX
  5
B7
330
77
100
AcDbEntity
  8
0
100
AcDbVertex
100
AcDb2dVertex
 10
66.8639701648864
 20
-8.66709747769209
 30
0.0
  0
VERTEX
  5
B8
330
77
100
AcDbEntity
  8
0
100
AcDbVertex
100
AcDb2dVertex
 10
64.828382445083
 20
-8.86663360853253
 30
0.0
  0
VERTEX
  5
B9
330
77
100
AcDbEntity
  8
0
100
AcDbVertex
100
AcDb2dVertex
 10
62.766086744207
 20
-8.75810648972517
 30
0.0
  0
VERTEX
  5
BA
330
77
100
AcDbEntity
  8
0
100
AcDbVertex
100
AcDb2dVertex
 10
60.0599829917598
 20
-8.18006803683725
 30
0.0
  0
VERTEX
  5
BB
330
77
100
AcDbEntity
  8
0
100
AcDbVertex
100
AcDb2dVertex
 10
57.513109768709
 20
-7.14592146444522
 30
0.0
  0
VERTEX
  5
BC
330
77
100
AcDbEntity
  8
0
100
AcDbVertex
100
AcDb2dVertex
 10
55.14166975084209
 20
-5.79443860495232
 30
0.0
  0
VERTEX
  5
BD
330
77
100
AcDbEntity
  8
0
100
AcDbVertex
100
AcDb2dVertex
 10
52.9168525639207
 20
-11.3564815722559
 30
0.0
  0
VERTEX
  5
BE
330
77
100
AcDbEntity
  8
0
100
AcDbVertex
100
AcDb2dVertex
 10
54.8216973271017
 20
-12.6849052039324
 30
0.0
  0
VERTEX
  5
BF
330
77
100
AcDbEntity
  8
0
100
AcDbVertex
100
AcDb2dVertex
 10
56.8499179406311
 20
-13.7651566347293
 30
0.0
  0
VERTEX
  5
C0
330
77
100
AcDbEntity
  8
0
100
AcDbVertex
100
AcDb2dVertex
 10
59.05437704388671
 20
-14.4611879860088
 30
0.0
  0
VERTEX
  5
C1
330
77
100
AcDbEntity
  8
0
100
AcDbVertex
100
AcDb2dVertex
 10
61.3553895969819
 20
-14.84771782272052
 30
0.0
  0
VERTEX
  5
C2
330
77
100
AcDbEntity
  8
0
100
AcDbVertex
100
AcDb2dVertex
 10
63.6685855620621
 20
-15.01246843521985
 30
0.0
  0
VERTEX
  5
C3
330
77
100
AcDbEntity
  8
0
100
AcDbVertex
100
AcDb2dVertex
 10
65.9764841653121
 20
-14.9741474633588
 30
0.0
  0
VERTEX
  5
C4
330
77
100
AcDbEntity
  8
0
100
AcDbVertex
100
AcDb2dVertex
 10
68.288756327587
 20
-14.7227270509434
 30
0.0
  0
VERTEX
  5
C5
330
77
100
AcDbEntity
  8
0
100
AcDbVertex
100
AcDb2dVertex
 10
70.5790060360205
 20
-14.2230209466854
 30
0.0
  0
VERTEX
  5
C6
330
77
100
AcDbEntity
  8
0
100
AcDbVertex
100
AcDb2dVertex
 10
72.7572875348851
 20
-13.3957753824397
 30
0.0
  0
VERTEX
  5
C7
330
77
100
AcDbEntity
  8
0
100
AcDbVertex
100
AcDb2dVertex
 10
73.9704110648031
 20
-12.7073789188072
 30
0.0
  0
VERTEX
  5
C8
330
77
100
AcDbEntity
  8
0
100
AcDbVertex
100
AcDb2dVertex
 10
75.08503586578749
 20
-11.85331497378472
 30
0.0
  0
VERTEX
  5
C9
330
77
100
AcDbEntity
  8
0
100
AcDbVertex
100
AcDb2dVertex
 10
76.02886338138221
 20
-10.82463347194884
 30
0.0
  0
VERTEX
  5
CA
330
77
100
AcDbEntity
  8
0
100
AcDbVertex
100
AcDb2dVertex
 10
76.6914215174351
 20
-9.621587233008361
 30
0.0
  0
VERTEX
  5
CB
330
77
100
AcDbEntity
  8
0
100
AcDbVertex
100
AcDb2dVertex
 10
77.0657287011303
 20
-8.28199175189677
 30
0.0
  0
SEQEND
  5
CC
330
77
100
AcDbEntity
  8
ANSYS_LOGO_2D
  0
POLYLINE
  5
CD
330
1F
100
AcDbEntity
  8
ANSYS_LOGO_2D
100
AcDb2dPolyline
 66
     1
 10
0.0
 20
0.0
 30
0.0
 70
     1
  0
VERTEX
  5
CE
330
CD
100
AcDbEntity
  8
0
100
AcDbVertex
100
AcDb2dVertex
 10
22.8941725605595
 20
27.94
 30
0.0
  0
VERTEX
  5
CF
330
CD
100
AcDbEntity
  8
0
100
AcDbVertex
100
AcDb2dVertex
 10
22.8941725605595
 20
12.94346614711936
 30
0.0
  0
VERTEX
  5
D0
330
CD
100
AcDbEntity
  8
0
100
AcDbVertex
100
AcDb2dVertex
 10
30.990035101857
 20
12.94346614711936
 30
0.0
  0
VERTEX
  5
D1
330
CD
100
AcDbEntity
  8
0
100
AcDbVertex
100
AcDb2dVertex
 10
37.60268618520685
 20
-2.939256548403125
 30
0.0
  0
VERTEX
  5
D2
330
CD
100
AcDbEntity
  8
0
100
AcDbVertex
100
AcDb2dVertex
 10
43.9681353588987
 20
12.94346614711936
 30
0.0
  0
VERTEX
  5
D3
330
CD
100
AcDbEntity
  8
0
100
AcDbVertex
100
AcDb2dVertex
 10
52.24939933243959
 20
12.94346614711936
 30
0.0
  0
VERTEX
  5
D4
330
CD
100
AcDbEntity
  8
0
100
AcDbVertex
100
AcDb2dVertex
 10
36.98468141106201
 20
-24.56942364347265
 30
0.0
  0
VERTEX
  5
D5
330
CD
100
AcDbEntity
  8
0
100
AcDbVertex
100
AcDb2dVertex
 10
28.950619347179
 20
-24.56942364347265
 30
0.0
  0
VERTEX
  5
D6
330
CD
100
AcDbEntity
  8
0
100
AcDbVertex
100
AcDb2dVertex
 10
33.62282627155635
 20
-13.0875224163591
 30
0.0
  0
VERTEX
  5
D7
330
CD
100
AcDbEntity
  8
0
100
AcDbVertex
100
AcDb2dVertex
 10
22.8941725605595
 20
12.94346614711936
 30
0.0
  0
VERTEX
  5
D8
330
CD
100
AcDbEntity
  8
0
100
AcDbVertex
100
AcDb2dVertex
 10
22.8941725605595
 20
27.94
 30
0.0
  0
VERTEX
  5
D9
330
CD
100
AcDbEntity
  8
0
100
AcDbVertex
100
AcDb2dVertex
 10
9.29659483854654
 20
27.94
 30
0.0
  0
VERTEX
  5
DA
330
CD
100
AcDbEntity
  8
0
100
AcDbVertex
100
AcDb2dVertex
 10
9.29659483854654
 20
13.68974685219594
 30
0.0
  0
VERTEX
  5
DB
330
CD
100
AcDbEntity
  8
0
100
AcDbVertex
100
AcDb2dVertex
 10
11.60858336448794
 20
13.5299588983223
 30
0.0
  0
VERTEX
  5
DC
330
CD
100
AcDbEntity
  8
0
100
AcDbVertex
100
AcDb2dVertex
 10
13.92798394768002
 20
13.1951236759789
 30
0.0
  0
VERTEX
  5
DD
330
CD
100
AcDbEntity
  8
0
100
AcDbVertex
100
AcDb2dVertex
 10
16.1719298910792
 20
12.61158163853856
 30
0.0
  0
VERTEX
  5
DE
330
CD
100
AcDbEntity
  8
0
100
AcDbVertex
100
AcDb2dVertex
 10
18.2333722381188
 20
11.63148459844814
 30
0.0
  0
VERTEX
  5
DF
330
CD
100
AcDbEntity
  8
0
100
AcDbVertex
100
AcDb2dVertex
 10
20.1007909814248
 20
10.27368552281362
 30
0.0
  0
VERTEX
  5
E0
330
CD
100
AcDbEntity
  8
0
100
AcDbVertex
100
AcDb2dVertex
 10
17.9995747493324
 20
4.958844465167971
 30
0.0
  0
VERTEX
  5
E1
330
CD
100
AcDbEntity
  8
0
100
AcDbVertex
100
AcDb2dVertex
 10
16.16561692125755
 20
5.92800103676746
 30
0.0
  0
VERTEX
  5
E2
330
CD
100
AcDbEntity
  8
0
100
AcDbVertex
100
AcDb2dVertex
 10
14.29954069847536
 20
6.77044406141874
 30
0.0
  0
VERTEX
  5
E3
330
CD
100
AcDbEntity
  8
0
100
AcDbVertex
100
AcDb2dVertex
 10
12.3697206450408
 20
7.36809171550312
 30
0.0
  0
VERTEX
  5
E4
330
CD
100
AcDbEntity
  8
0
100
AcDbVertex
100
AcDb2dVertex
 10
9.68129964941756
 20
7.759548434612551
 30
0.0
  0
VERTEX
  5
E5
330
CD
100
AcDbEntity
  8
0
100
AcDbVertex
100
AcDb2dVertex
 10
8.78476311223852
 20
7.80380019388205
 30
0.0
  0
VERTEX
  5
E6
330
CD
100
AcDbEntity
  8
0
100
AcDbVertex
100
AcDb2dVertex
 10
7.87959034875058
 20
7.79349300192961
 30
0.0
  0
VERTEX
  5
E7
330
CD
100
AcDbEntity
  8
0
100
AcDbVertex
100
AcDb2dVertex
 10
7.023061030235529
 20
7.641993745420769
 30
0.0
  0
VERTEX
  5
E8
330
CD
100
AcDbEntity
  8
0
100
AcDbVertex
100
AcDb2dVertex
 10
6.28127266719752
 20
7.2496297771772
 30
0.0
  0
VERTEX
  5
E9
330
CD
100
AcDbEntity
  8
0
100
AcDbVertex
100
AcDb2dVertex
 10
5.61260514363774
 20
6.46070895816152
 30
0.0
  0
VERTEX
  5
EA
330
CD
100
AcDbEntity
  8
0
100
AcDbVertex
100
AcDb2dVertex
 10
5.22672948453646
 20
5.50891529746895
 30
0.0
  0
VERTEX
  5
EB
330
CD
100
AcDbEntity
  8
0
100
AcDbVertex
100
AcDb2dVertex
 10
5.18453160306581
 20
4.981379608181769
 30
0.0
  0
VERTEX
  5
EC
330
CD
100
AcDbEntity
  8
0
100
AcDbVertex
100
AcDb2dVertex
 10
5.27568263578007
 20
4.47256079581753
 30
0.0
  0
VERTEX
  5
ED
330
CD
100
AcDbEntity
  8
0
100
AcDbVertex
100
AcDb2dVertex
 10
5.52361247390848
 20
4.054765399953404
 30
0.0
  0
VERTEX
  5
EE
330
CD
100
AcDbEntity
  8
0
100
AcDbVertex
100
AcDb2dVertex
 10
5.90893620889982
 20
3.738501951475929
 30
0.0
  0
VERTEX
  5
EF
330
CD
100
AcDbEntity
  8
0
100
AcDbVertex
100
AcDb2dVertex
 10
6.674521992385089
 20
3.390957032382825
 30
0.0
  0
VERTEX
  5
F0
330
CD
100
AcDbEntity
  8
0
100
AcDbVertex
100
AcDb2dVertex
 10
7.50245991102998
 20
3.134489098971805
 30
0.0
  0
VERTEX
  5
F1
330
CD
100
AcDbEntity
  8
0
100
AcDbVertex
100
AcDb2dVertex
 10
8.30131755451145
 20
2.912091771824655
 30
0.0
  0
VERTEX
  5
F2
330
CD
100
AcDbEntity
  8
0
100
AcDbVertex
100
AcDb2dVertex
 10
11.20758439844482
 20
2.25059741906921
 30
0.0
  0
VERTEX
  5
F3
330
CD
100
AcDbEntity
  8
0
100
AcDbVertex
100
AcDb2dVertex
 10
13.45096045629694
 20
1.784963568058435
 30
0.0
  0
VERTEX
  5
F4
330
CD
100
AcDbEntity
  8
0
100
AcDbVertex
100
AcDb2dVertex
 10
15.65280875217185
 20
1.050710275805102
 30
0.0
  0
VERTEX
  5
F5
330
CD
100
AcDbEntity
  8
0
100
AcDbVertex
100
AcDb2dVertex
 10
17.66619607520465
 20
-0.105787459558283
 30
0.0
  0
VERTEX
  5
F6
330
CD
100
AcDbEntity
  8
0
100
AcDbVertex
100
AcDb2dVertex
 10
18.8468533396116
 20
-1.1200840235433
 30
0.0
  0
VERTEX
  5
F7
330
CD
100
AcDbEntity
  8
0
100
AcDbVertex
100
AcDb2dVertex
 10
19.8455114286505
 20
-2.3248720996104
 30
0.0
  0
VERTEX
  5
F8
330
CD
100
AcDbEntity
  8
0
100
AcDbVertex
100
AcDb2dVertex
 10
20.57730102311345
 20
-3.691498340514079
 30
0.0
  0
VERTEX
  5
F9
330
CD
100
AcDbEntity
  8
0
100
AcDbVertex
100
AcDb2dVertex
 10
20.93928464033655
 20
-5.17499728432816
 30
0.0
  0
VERTEX
  5
FA
330
CD
100
AcDbEntity
  8
0
100
AcDbVertex
100
AcDb2dVertex
 10
20.95988274000745
 20
-6.724370497495091
 30
0.0
  0
VERTEX
  5
FB
330
CD
100
AcDbEntity
  8
0
100
AcDbVertex
100
AcDb2dVertex
 10
20.76548570113035
 20
-8.28199175189677
 30
0.0
  0
VERTEX
  5
FC
330
CD
100
AcDbEntity
  8
0
100
AcDbVertex
100
AcDb2dVertex
 10
20.39117851743505
 20
-9.62158723300835
 30
0.0
  0
VERTEX
  5
FD
330
CD
100
AcDbEntity
  8
0
100
AcDbVertex
100
AcDb2dVertex
 10
19.72862038138215
 20
-10.82463347194884
 30
0.0
  0
VERTEX
  5
FE
330
CD
100
AcDbEntity
  8
0
100
AcDbVertex
100
AcDb2dVertex
 10
18.7847928657874
 20
-11.8533149737847
 30
0.0
  0
VERTEX
  5
FF
330
CD
100
AcDbEntity
  8
0
100
AcDbVertex
100
AcDb2dVertex
 10
17.670168064803
 20
-12.7073789188072
 30
0.0
  0
VERTEX
  5
100
330
CD
100
AcDbEntity
  8
0
100
AcDbVertex
100
AcDb2dVertex
 10
16.45704453488505
 20
-13.39577538243968
 30
0.0
  0
VERTEX
  5
101
330
CD
100
AcDbEntity
  8
0
100
AcDbVertex
100
AcDb2dVertex
 10
14.27876303602048
 20
-14.2230209466854
 30
0.0
  0
VERTEX
  5
102
330
CD
100
AcDbEntity
  8
0
100
AcDbVertex
100
AcDb2dVertex
 10
11.98851332758696
 20
-14.7227270509434
 30
0.0
  0
VERTEX
  5
103
330
CD
100
AcDbEntity
  8
0
100
AcDbVertex
100
AcDb2dVertex
 10
9.67624116531207
 20
-14.97414746335878
 30
0.0
  0
VERTEX
  5
104
330
CD
100
AcDbEntity
  8
0
100
AcDbVertex
100
AcDb2dVertex
 10
7.368342562062089
 20
-15.01246843521985
 30
0.0
  0
VERTEX
  5
105
330
CD
100
AcDbEntity
  8
0
100
AcDbVertex
100
AcDb2dVertex
 10
5.05514659698185
 20
-14.8477178227205
 30
0.0
  0
VERTEX
  5
106
330
CD
100
AcDbEntity
  8
0
100
AcDbVertex
100
AcDb2dVertex
 10
2.754134043886685
 20
-14.46118798600878
 30
0.0
  0
VERTEX
  5
107
330
CD
100
AcDbEntity
  8
0
100
AcDbVertex
100
AcDb2dVertex
 10
0.549674940631022
 20
-13.7651566347293
 30
0.0
  0
VERTEX
  5
108
330
CD
100
AcDbEntity
  8
0
100
AcDbVertex
100
AcDb2dVertex
 10
-1.478545672898354
 20
-12.68490520393238
 30
0.0
  0
VERTEX
  5
109
330
CD
100
AcDbEntity
  8
0
100
AcDbVertex
100
AcDb2dVertex
 10
-3.38339043607924
 20
-11.3564815722559
 30
0.0
  0
VERTEX
  5
10A
330
CD
100
AcDbEntity
  8
0
100
AcDbVertex
100
AcDb2dVertex
 10
-1.158573249157802
 20
-5.79443860495232
 30
0.0
  0
VERTEX
  5
10B
330
CD
100
AcDbEntity
  8
0
100
AcDbVertex
100
AcDb2dVertex
 10
1.212866768708964
 20
-7.14592146444522
 30
0.0
  0
VERTEX
  5
10C
330
CD
100
AcDbEntity
  8
0
100
AcDbVertex
100
AcDb2dVertex
 10
3.75973999175973
 20
-8.18006803683725
 30
0.0
  0
VERTEX
  5
10D
330
CD
100
AcDbEntity
  8
0
100
AcDbVertex
100
AcDb2dVertex
 10
6.465843744206951
 20
-8.75810648972516
 30
0.0
  0
VERTEX
  5
10E
330
CD
100
AcDbEntity
  8
0
100
AcDbVertex
100
AcDb2dVertex
 10
8.52813944508296
 20
-8.86663360853252
 30
0.0
  0
VERTEX
  5
10F
330
CD
100
AcDbEntity
  8
0
100
AcDbVertex
100
AcDb2dVertex
 10
10.5637271648864
 20
-8.66709747769209
 30
0.0
  0
VERTEX
  5
110
330
CD
100
AcDbEntity
  8
0
100
AcDbVertex
100
AcDb2dVertex
 10
11.562032418232
 20
-8.398310997000921
 30
0.0
  0
VERTEX
  5
111
330
CD
100
AcDbEntity
  8
0
100
AcDbVertex
100
AcDb2dVertex
 10
12.46731345350896
 20
-7.92131688700931
 30
0.0
  0
VERTEX
  5
112
330
CD
100
AcDbEntity
  8
0
100
AcDbVertex
100
AcDb2dVertex
 10
12.93041335327668
 20
-7.42787922627061
 30
0.0
  0
VERTEX
  5
113
330
CD
100
AcDbEntity
  8
0
100
AcDbVertex
100
AcDb2dVertex
 10
13.24338021348452
 20
-6.795409557834471
 30
0.0
  0
VERTEX
  5
114
330
CD
100
AcDbEntity
  8
0
100
AcDbVertex
100
AcDb2dVertex
 10
13.36000797710814
 20
-6.08699116066573
 30
0.0
  0
VERTEX
  5
115
330
CD
100
AcDbEntity
  8
0
100
AcDbVertex
100
AcDb2dVertex
 10
13.30449170642526
 20
-5.71005926781827
 30
0.0
  0
VERTEX
  5
116
330
CD
100
AcDbEntity
  8
0
100
AcDbVertex
100
AcDb2dVertex
 10
13.14078648070746
 20
-5.383017269361829
 30
0.0
  0
VERTEX
  5
117
330
CD
100
AcDbEntity
  8
0
100
AcDbVertex
100
AcDb2dVertex
 10
12.5470845653384
 20
-4.89183460634543
 30
0.0
  0
VERTEX
  5
118
330
CD
100
AcDbEntity
  8
0
100
AcDbVertex
100
AcDb2dVertex
 10
11.81300089973064
 20
-4.54765624437066
 30
0.0
  0
VERTEX
  5
119
330
CD
100
AcDbEntity
  8
0
100
AcDbVertex
100
AcDb2dVertex
 10
11.08186625644518
 20
-4.28890793506985
 30
0.0
  0
VERTEX
  5
11A
330
CD
100
AcDbEntity
  8
0
100
AcDbVertex
100
AcDb2dVertex
 10
9.62343685591447
 20
-3.90502233844788
 30
0.0
  0
VERTEX
  5
11B
330
CD
100
AcDbEntity
  8
0
100
AcDbVertex
100
AcDb2dVertex
 10
8.13920661004426
 20
-3.574341741169655
 30
0.0
  0
VERTEX
  5
11C
330
CD
100
AcDbEntity
  8
0
100
AcDbVertex
100
AcDb2dVertex
 10
6.11312701401499
 20
-3.157927819659609
 30
0.0
  0
VERTEX
  5
11D
330
CD
100
AcDbEntity
  8
0
100
AcDbVertex
100
AcDb2dVertex
 10
4.05208858456128
 20
-2.706069061636165
 30
0.0
  0
VERTEX
  5
11E
330
CD
100
AcDbEntity
  8
0
100
AcDbVertex
100
AcDb2dVertex
 10
2.068207535031255
 20
-2.0731848810979
 30
0.0
  0
VERTEX
  5
11F
330
CD
100
AcDbEntity
  8
0
100
AcDbVertex
100
AcDb2dVertex
 10
0.7146828333725499
 20
-1.378540165366616
 30
0.0
  0
VERTEX
  5
120
330
CD
100
AcDbEntity
  8
0
100
AcDbVertex
100
AcDb2dVertex
 10
-0.458748464720897
 20
-0.418558588288815
 30
0.0
  0
VERTEX
  5
121
330
CD
100
AcDbEntity
  8
0
100
AcDbVertex
100
AcDb2dVertex
 10
-1.406609262958996
 20
0.801073668790911
 30
0.0
  0
VERTEX
  5
122
330
CD
100
AcDbEntity
  8
0
100
AcDbVertex
100
AcDb2dVertex
 10
-2.098137283599435
 20
2.186674068323155
 30
0.0
  0
VERTEX
  5
123
330
CD
100
AcDbEntity
  8
0
100
AcDbVertex
100
AcDb2dVertex
 10
-2.49407244070122
 20
3.67503134619731
 30
0.0
  0
VERTEX
  5
124
330
CD
100
AcDbEntity
  8
0
100
AcDbVertex
100
AcDb2dVertex
 10
-2.559845473085875
 20
5.21388998270709
 30
0.0
  0
VERTEX
  5
125
330
CD
100
AcDbEntity
  8
0
100
AcDbVertex
100
AcDb2dVertex
 10
-2.25597788613195
 20
6.917469271252539
 30
0.0
  0
VERTEX
  5
126
330
CD
100
AcDbEntity
  8
0
100
AcDbVertex
100
AcDb2dVertex
 10
-1.600128126057155
 20
8.51906029580331
 30
0.0
  0
VERTEX
  5
127
330
CD
100
AcDbEntity
  8
0
100
AcDbVertex
100
AcDb2dVertex
 10
-0.651751407339232
 20
9.988298427243478
 30
0.0
  0
VERTEX
  5
128
330
CD
100
AcDbEntity
  8
0
100
AcDbVertex
100
AcDb2dVertex
 10
0.558696558209456
 20
11.23589278032692
 30
0.0
  0
VERTEX
  5
129
330
CD
100
AcDbEntity
  8
0
100
AcDbVertex
100
AcDb2dVertex
 10
2.014478197977035
 20
12.14580465698184
 30
0.0
  0
VERTEX
  5
12A
330
CD
100
AcDbEntity
  8
0
100
AcDbVertex
100
AcDb2dVertex
 10
3.63976265210655
 20
12.75924788511548
 30
0.0
  0
VERTEX
  5
12B
330
CD
100
AcDbEntity
  8
0
100
AcDbVertex
100
AcDb2dVertex
 10
5.319859052803209
 20
13.2254368202107
 30
0.0
  0
VERTEX
  5
12C
330
CD
100
AcDbEntity
  8
0
100
AcDbVertex
100
AcDb2dVertex
 10
7.01228119342686
 20
13.55830132822024
 30
0.0
  0
VERTEX
  5
12D
330
CD
100
AcDbEntity
  8
0
100
AcDbVertex
100
AcDb2dVertex
 10
9.29659483854654
 20
13.68974685219594
 30
0.0
  0
VERTEX
  5
12E
330
CD
100
AcDbEntity
  8
0
100
AcDbVertex
100
AcDb2dVertex
 10
9.29659483854654
 20
27.94
 30
0.0
  0
VERTEX
  5
12F
330
CD
100
AcDbEntity
  8
0
100
AcDbVertex
100
AcDb2dVertex
 10
-16.3286705652688
 20
27.94
 30
0.0
  0
VERTEX
  5
130
330
CD
100
AcDbEntity
  8
0
100
AcDbVertex
100
AcDb2dVertex
 10
-16.3286705652688
 20
13.86042614598236
 30
0.0
  0
VERTEX
  5
131
330
CD
100
AcDbEntity
  8
0
100
AcDbVertex
100
AcDb2dVertex
 10
-14.70837419092436
 20
13.64760854581892
 30
0.0
  0
VERTEX
  5
132
330
CD
100
AcDbEntity
  8
0
100
AcDbVertex
100
AcDb2dVertex
 10
-13.42972752605874
 20
13.30408486319594
 30
0.0
  0
VERTEX
  5
133
330
CD
100
AcDbEntity
  8
0
100
AcDbVertex
100
AcDb2dVertex
 10
-12.2145658128836
 20
12.79071809114558
 30
0.0
  0
VERTEX
  5
134
330
CD
100
AcDbEntity
  8
0
100
AcDbVertex
100
AcDb2dVertex
 10
-11.11106346123278
 20
12.09278311010528
 30
0.0
  0
VERTEX
  5
135
330
CD
100
AcDbEntity
  8
0
100
AcDbVertex
100
AcDb2dVertex
 10
-10.1625449355171
 20
11.2012556428796
 30
0.0
  0
VERTEX
  5
136
330
CD
100
AcDbEntity
  8
0
100
AcDbVertex
100
AcDb2dVertex
 10
-9.37817310120659
 20
10.14726648075052
 30
0.0
  0
VERTEX
  5
137
330
CD
100
AcDbEntity
  8
0
100
AcDbVertex
100
AcDb2dVertex
 10
-8.620132708750178
 20
8.67503400557092
 30
0.0
  0
VERTEX
  5
138
330
CD
100
AcDbEntity
  8
0
100
AcDbVertex
100
AcDb2dVertex
 10
-8.09697596880697
 20
7.117122708238909
 30
0.0
  0
VERTEX
  5
139
330
CD
100
AcDbEntity
  8
0
100
AcDbVertex
100
AcDb2dVertex
 10
-7.75523240743329
 20
5.52642045770909
 30
0.0
  0
VERTEX
  5
13A
330
CD
100
AcDbEntity
  8
0
100
AcDbVertex
100
AcDb2dVertex
 10
-7.50485283031834
 20
3.919966995297624
 30
0.0
  0
VERTEX
  5
13B
330
CD
100
AcDbEntity
  8
0
100
AcDbVertex
100
AcDb2dVertex
 10
-7.50485283031834
 20
-14.4914252344342
 30
0.0
  0
VERTEX
  5
13C
330
CD
100
AcDbEntity
  8
0
100
AcDbVertex
100
AcDb2dVertex
 10
-15.91658447840095
 20
-14.4914252344342
 30
0.0
  0
VERTEX
  5
13D
330
CD
100
AcDbEntity
  8
0
100
AcDbVertex
100
AcDb2dVertex
 10
-15.91658447840095
 20
2.160370068913
 30
0.0
  0
VERTEX
  5
13E
330
CD
100
AcDbEntity
  8
0
100
AcDbVertex
100
AcDb2dVertex
 10
-15.97860096270725
 20
2.820300258359815
 30
0.0
  0
VERTEX
  5
13F
330
CD
100
AcDbEntity
  8
0
100
AcDbVertex
100
AcDb2dVertex
 10
-16.06380729263895
 20
3.47588448950385
 30
0.0
  0
VERTEX
  5
140
330
CD
100
AcDbEntity
  8
0
100
AcDbVertex
100
AcDb2dVertex
 10
-16.1953933138215
 20
4.12277680404232
 30
0.0
  0
VERTEX
  5
141
330
CD
100
AcDbEntity
  8
0
100
AcDbVertex
100
AcDb2dVertex
 10
-16.39638853780985
 20
4.75638260255038
 30
0.0
  0
VERTEX
  5
142
330
CD
100
AcDbEntity
  8
0
100
AcDbVertex
100
AcDb2dVertex
 10
-16.682877704072
 20
5.36133754764727
 30
0.0
  0
VERTEX
  5
143
330
CD
100
AcDbEntity
  8
0
100
AcDbVertex
100
AcDb2dVertex
 10
-17.06148920645325
 20
5.90761269336574
 30
0.0
  0
VERTEX
  5
144
330
CD
100
AcDbEntity
  8
0
100
AcDbVertex
100
AcDb2dVertex
 10
-17.53740363075315
 20
6.364864180401031
 30
0.0
  0
VERTEX
  5
145
330
CD
100
AcDbEntity
  8
0
100
AcDbVertex
100
AcDb2dVertex
 10
-18.0976039555365
 20
6.720140927981161
 30
0.0
  0
VERTEX
  5
146
330
CD
100
AcDbEntity
  8
0
100
AcDbVertex
100
AcDb2dVertex
 10
-18.71085431333965
 20
6.97813099163871
 30
0.0
  0
VERTEX
  5
147
330
CD
100
AcDbEntity
  8
0
100
AcDbVertex
100
AcDb2dVertex
 10
-19.3538330318592
 20
7.143783589725359
 30
0.0
  0
VERTEX
  5
148
330
CD
100
AcDbEntity
  8
0
100
AcDbVertex
100
AcDb2dVertex
 10
-20.0139852422193
 20
7.22139840626624
 30
0.0
  0
VERTEX
  5
149
330
CD
100
AcDbEntity
  8
0
100
AcDbVertex
100
AcDb2dVertex
 10
-20.6794237309372
 20
7.215229941479049
 30
0.0
  0
VERTEX
  5
14A
330
CD
100
AcDbEntity
  8
0
100
AcDbVertex
100
AcDb2dVertex
 10
-21.4689201622961
 20
7.102308571608271
 30
0.0
  0
VERTEX
  5
14B
330
CD
100
AcDbEntity
  8
0
100
AcDbVertex
100
AcDb2dVertex
 10
-22.2314037796862
 20
6.87841020701458
 30
0.0
  0
VERTEX
  5
14C
330
CD
100
AcDbEntity
  8
0
100
AcDbVertex
100
AcDb2dVertex
 10
-22.9502173275084
 20
6.54858178945133
 30
0.0
  0
VERTEX
  5
14D
330
CD
100
AcDbEntity
  8
0
100
AcDbVertex
100
AcDb2dVertex
 10
-23.62211120147
 20
6.12607239131039
 30
0.0
  0
VERTEX
  5
14E
330
CD
100
AcDbEntity
  8
0
100
AcDbVertex
100
AcDb2dVertex
 10
-24.2507185485362
 20
5.62843893767641
 30
0.0
  0
VERTEX
  5
14F
330
CD
100
AcDbEntity
  8
0
100
AcDbVertex
100
AcDb2dVertex
 10
-24.81773098525445
 20
5.06298484349578
 30
0.0
  0
VERTEX
  5
150
330
CD
100
AcDbEntity
  8
0
100
AcDbVertex
100
AcDb2dVertex
 10
-25.27847824485025
 20
4.424679644100805
 30
0.0
  0
VERTEX
  5
151
330
CD
100
AcDbEntity
  8
0
100
AcDbVertex
100
AcDb2dVertex
 10
-25.60357737762961
 20
3.7133119188846
 30
0.0
  0
VERTEX
  5
152
330
CD
100
AcDbEntity
  8
0
100
AcDbVertex
100
AcDb2dVertex
 10
-25.82799787571725
 20
2.949861633852719
 30
0.0
  0
VERTEX
  5
153
330
CD
100
AcDbEntity
  8
0
100
AcDbVertex
100
AcDb2dVertex
 10
-26.00207905645915
 20
2.160370068913
 30
0.0
  0
VERTEX
  5
154
330
CD
100
AcDbEntity
  8
0
100
AcDbVertex
100
AcDb2dVertex
 10
-26.00207905645915
 20
-14.4914252344342
 30
0.0
  0
VERTEX
  5
155
330
CD
100
AcDbEntity
  8
0
100
AcDbVertex
100
AcDb2dVertex
 10
-34.54256169915525
 20
-14.4914252344342
 30
0.0
  0
VERTEX
  5
156
330
CD
100
AcDbEntity
  8
0
100
AcDbVertex
100
AcDb2dVertex
 10
-34.54256169915525
 20
13.01837061465226
 30
0.0
  0
VERTEX
  5
157
330
CD
100
AcDbEntity
  8
0
100
AcDbVertex
100
AcDb2dVertex
 10
-26.2166640474817
 20
13.0612876128568
 30
0.0
  0
VERTEX
  5
158
330
CD
100
AcDbEntity
  8
0
100
AcDbVertex
100
AcDb2dVertex
 10
-26.2166640474817
 20
9.327508769065
 30
0.0
  0
VERTEX
  5
159
330
CD
100
AcDbEntity
  8
0
100
AcDbVertex
100
AcDb2dVertex
 10
-25.44877224892605
 20
10.39737762350392
 30
0.0
  0
VERTEX
  5
15A
330
CD
100
AcDbEntity
  8
0
100
AcDbVertex
100
AcDb2dVertex
 10
-24.6026248568742
 20
11.3794932345821
 30
0.0
  0
VERTEX
  5
15B
330
CD
100
AcDbEntity
  8
0
100
AcDbVertex
100
AcDb2dVertex
 10
-23.6073869570935
 20
12.19266589999416
 30
0.0
  0
VERTEX
  5
15C
330
CD
100
AcDbEntity
  8
0
100
AcDbVertex
100
AcDb2dVertex
 10
-22.4655956254738
 20
12.8206029507607
 30
0.0
  0
VERTEX
  5
15D
330
CD
100
AcDbEntity
  8
0
100
AcDbVertex
100
AcDb2dVertex
 10
-21.2216443777375
 20
13.28403345829942
 30
0.0
  0
VERTEX
  5
15E
330
CD
100
AcDbEntity
  8
0
100
AcDbVertex
100
AcDb2dVertex
 10
-19.59141729329
 20
13.6642214296837
 30
0.0
  0
VERTEX
  5
15F
330
CD
100
AcDbEntity
  8
0
100
AcDbVertex
100
AcDb2dVertex
 10
-17.9530519597562
 20
13.85746678045556
 30
0.0
  0
VERTEX
  5
160
330
CD
100
AcDbEntity
  8
0
100
AcDbVertex
100
AcDb2dVertex
 10
-16.3286705652688
 20
13.86042614598236
 30
0.0
  0
VERTEX
  5
161
330
CD
100
AcDbEntity
  8
0
100
AcDbVertex
100
AcDb2dVertex
 10
-16.3286705652688
 20
27.94
 30
0.0
  0
VERTEX
  5
162
330
CD
100
AcDbEntity
  8
0
100
AcDbVertex
100
AcDb2dVertex
 10
-53.1847169890527
 20
27.94
 30
0.0
  0
VERTEX
  5
163
330
CD
100
AcDbEntity
  8
0
100
AcDbVertex
100
AcDb2dVertex
 10
-53.1847169890527
 20
23.6673892848276
 30
0.0
  0
VERTEX
  5
164
330
CD
100
AcDbEntity
  8
0
100
AcDbVertex
100
AcDb2dVertex
 10
-36.8693909516288
 20
-14.3399043250803
 30
0.0
  0
VERTEX
  5
165
330
CD
100
AcDbEntity
  8
0
100
AcDbVertex
100
AcDb2dVertex
 10
-48.3642797507229
 20
-14.3399043250803
 30
0.0
  0
VERTEX
  5
166
330
CD
100
AcDbEntity
  8
0
100
AcDbVertex
100
AcDb2dVertex
 10
-58.66915464309199
 20
10.6571844774228
 30
0.0
  0
VERTEX
  5
167
330
CD
100
AcDbEntity
  8
0
100
AcDbVertex
100
AcDb2dVertex
 10
-53.1847169890527
 20
23.6673892848276
 30
0.0
  0
VERTEX
  5
168
330
CD
100
AcDbEntity
  8
0
100
AcDbVertex
100
AcDb2dVertex
 10
-53.1847169890527
 20
27.94
 30
0.0
  0
VERTEX
  5
169
330
CD
100
AcDbEntity
  8
0
100
AcDbVertex
100
AcDb2dVertex
 10
-86.36
 20
27.94
 30
0.0
  0
VERTEX
  5
16A
330
CD
100
AcDbEntity
  8
0
100
AcDbVertex
100
AcDb2dVertex
 10
-86.36
 20
-27.94
 30
0.0
  0
VERTEX
  5
16B
330
CD
100
AcDbEntity
  8
0
100
AcDbVertex
100
AcDb2dVertex
 10
81.28
 20
-27.94
 30
0.0
  0
VERTEX
  5
16C
330
CD
100
AcDbEntity
  8
0
100
AcDbVertex
100
AcDb2dVertex
 10
81.28
 20
27.94
 30
0.0
  0
VERTEX
  5
16D
330
CD
100
AcDbEntity
  8
0
100
AcDbVertex
100
AcDb2dVertex
 10
22.8941725605595
 20
27.94
 30
0.0
  0
SEQEND
  5
16E
330
CD
100
AcDbEntity
  8
ANSYS_LOGO_2D
  0
ENDSEC
  0
SECTION
  2
OBJECTS
  0
DICTIONARY
  5
C
330
0
100
AcDbDictionary
  3
ACAD_GROUP
350
D
  3
ACAD_LAYOUT
350
1A
  3
ACAD_MATERIAL
350
43
  3
ACAD_MLEADERSTYLE
350
6B
  3
ACAD_MLINESTYLE
350
17
  3
ACAD_PLOTSETTINGS
350
19
  3
ACAD_SCALELIST
350
47
  3
ACAD_VISUALSTYLE
350
2A
  3
ACDBVARIABLEDICTIONARY
350
16F
1001
ACAD
1000
TREAT_AS_HARD
1070
     0
  0
DICTIONARY
  5
D
102
{ACAD_REACTORS
330
C
102
}
330
C
100
AcDbDictionary
1001
ACAD
1000
TREAT_AS_HARD
1070
     0
  0
DICTIONARY
  5
1A
102
{ACAD_REACTORS
330
C
102
}
330
C
100
AcDbDictionary
1001
ACAD
1000
TREAT_AS_HARD
1070
     0
  0
DICTIONARY
  5
43
102
{ACAD_REACTORS
330
C
102
}
330
C
100
AcDbDictionary
  3
BYBLOCK
350
45
  3
BYLAYER
350
44
  3
GLOBAL
350
46
1001
ACAD
1000
TREAT_AS_HARD
1070
     0
  0
DICTIONARY
  5
6B
102
{ACAD_REACTORS
330
C
102
}
330
C
100
AcDbDictionary
  3
STANDARD
350
6C
1001
ACAD
1000
TREAT_AS_HARD
1070
     0
  0
DICTIONARY
  5
17
102
{ACAD_REACTORS
330
C
102
}
330
C
100
AcDbDictionary
  3
STANDARD
350
18
1001
ACAD
1000
TREAT_AS_HARD
1070
     0
  0
DICTIONARY
  5
19
102
{ACAD_REACTORS
330
C
102
}
330
C
100
AcDbDictionary
1001
ACAD
1000
TREAT_AS_HARD
1070
     0
  0
DICTIONARY
  5
47
102
{ACAD_REACTORS
330
C
102
}
330
C
100
AcDbDictionary
  3
A0
350
48
  3
A1
350
49
  3
A2
350
4A
  3
A3
350
4B
  3
A4
350
4C
  3
A5
350
4D
  3
A6
350
4E
  3
A7
350
4F
  3
A8
350
50
  3
A9
350
51
  3
B0
350
52
  3
B1
350
53
  3
B2
350
54
  3
B3
350
55
  3
B4
350
56
  3
B5
350
57
  3
B6
350
58
  3
B7
350
59
  3
B8
350
5A
  3
B9
350
5B
  3
C0
350
5C
  3
C1
350
5D
  3
C2
350
5E
  3
C3
350
5F
  3
C4
350
60
  3
C5
350
61
  3
C6
350
62
  3
C7
350
63
  3
C8
350
64
  3
C9
350
65
  3
D0
350
66
  3
D1
350
67
  3
D2
350
68
1001
ACAD
1000
TREAT_AS_HARD
1070
     0
  0
DICTIONARY
  5
2A
102
{ACAD_REACTORS
330
C
102
}
330
C
100
AcDbDictionary
  3
2DWIREFRAME
350
2F
  3
BASIC
350
32
  3
BRIGHTEN
350
36
  3
COLORCHANGE
350
3A
  3
CONCEPTUAL
350
34
  3
DIM
350
35
  3
EDGECOLOROFF
350
3D
  3
FACEPATTERN
350
39
  3
FLAT
350
2B
  3
FLATWITHEDGES
350
2C
  3
GOURAUD
350
2D
  3
GOURAUDWITHEDGES
350
2E
  3
HIDDEN
350
31
  3
JITTEROFF
350
3B
  3
LINEPATTERN
350
38
  3
OVERHANGOFF
350
3C
  3
REALISTIC
350
33
  3
SHADED
350
42
  3
SHADED_WITH_EDGES
350
41
  3
SHADES_OF_GRAY
350
3E
  3
SKETCHY
350
3F
  3
THICKEN
350
37
  3
WIREFRAME
350
30
  3
X-RAY
350
40
1001
ACAD
1000
TREAT_AS_HARD
1070
     0
  0
DICTIONARY
  5
16F
102
{ACAD_REACTORS
330
C
102
}
330
C
100
AcDbDictionary
  3
CANNOSCALE
350
176
  3
CMLEADERSTYLE
350
171
  3
CTABLESTYLE
350
170
  3
DIMASSOC
350
174
  3
HIDETEXT
350
175
  3
MSLTSCALE
350
177
1001
ACAD
1000
TREAT_AS_HARD
1070
     0
  0
MATERIAL
  5
45
102
{ACAD_REACTORS
330
43
102
}
102
{ACAD_XDICTIONARY
360
17A
102
}
330
43
100
AcDbMaterial
  1
BYBLOCK
  0
MATERIAL
  5
44
102
{ACAD_REACTORS
330
43
102
}
102
{ACAD_XDICTIONARY
360
178
102
}
330
43
100
AcDbMaterial
  1
BYLAYER
  0
MATERIAL
  5
46
102
{ACAD_REACTORS
330
43
102
}
102
{ACAD_XDICTIONARY
360
17C
102
}
330
43
100
AcDbMaterial
  1
GLOBAL
  0
ACAD_PROXY_OBJECT
  5
6C
102
{ACAD_REACTORS
330
6B
102
}
330
6B
100
AcDbZombieObject
 90
      499
 91
      505
 93
      610
310
40901902A4063FBFFFFFE056BD1B81E855B9FC0AD7A3703D0AD73F4214DD185B99185C9900AD7A3703D0AC73F90141901A02B5E8DC0F42B1CFC02B5E8DC0F42B1CFE5764000000000000300FC0
340
14
340
0
340
11
340
0
 94
        0
1001
ACAD_MLEADERVER
1070
     2
  0
MLINESTYLE
  5
18
102
{ACAD_REACTORS
330
17
102
}
330
17
100
AcDbMlineStyle
  2
Standard
 70
     0
  3

 62
   256
 51
90.0
 52
90.0
 71
     2
 49
0.5
 62
   256
  6
BYLAYER
 49
-0.5
 62
   256
  6
BYLAYER
  0
ACAD_PROXY_OBJECT
  5
48
102
{ACAD_REACTORS
330
47
102
}
330
47
100
AcDbZombieObject
 90
      499
 91
      503
 93
       41
310
903313A31580
  0
ACAD_PROXY_OBJECT
  5
49
102
{ACAD_REACTORS
330
47
102
}
330
47
100
AcDbZombieObject
 90
      499
 91
      503
 93
      105
310
903313A324000000000000004000
  0
ACAD_PROXY_OBJECT
  5
4A
102
{ACAD_REACTORS
330
47
102
}
330
47
100
AcDbZombieObject
 90
      499
 91
      503
 93
      105
310
903313A344000000000000104000
  0
ACAD_PROXY_OBJECT
  5
4B
102
{ACAD_REACTORS
330
47
102
}
330
47
100
AcDbZombieObject
 90
      499
 91
      503
 93
      105
310
903313A354000000000000144000
  0
ACAD_PROXY_OBJECT
  5
4C
102
{ACAD_REACTORS
330
47
102
}
330
47
100
AcDbZombieObject
 90
      499
 91
      503
 93
      105
310
903313A384000000000000204000
  0
ACAD_PROXY_OBJECT
  5
4D
102
{ACAD_REACTORS
330
47
102
}
330
47
100
AcDbZombieObject
 90
      499
 91
      503
 93
      113
310
904313A31304000000000000244000
  0
ACAD_PROXY_OBJECT
  5
4E
102
{ACAD_REACTORS
330
47
102
}
330
47
100
AcDbZombieObject
 90
      499
 91
      503
 93
      113
310
904313A31364000000000000304000
  0
ACAD_PROXY_OBJECT
  5
4F
102
{ACAD_REACTORS
330
47
102
}
330
47
100
AcDbZombieObject
 90
      499
 91
      503
 93
      113
310
904313A32304000000000000344000
  0
ACAD_PROXY_OBJECT
  5
50
102
{ACAD_REACTORS
330
47
102
}
330
47
100
AcDbZombieObject
 90
      499
 91
      503
 93
      113
310
904313A333040000000000003E4000
  0
ACAD_PROXY_OBJECT
  5
51
102
{ACAD_REACTORS
330
47
102
}
330
47
100
AcDbZombieObject
 90
      499
 91
      503
 93
      113
310
904313A34304000000000000444000
  0
ACAD_PROXY_OBJECT
  5
52
102
{ACAD_REACTORS
330
47
102
}
330
47
100
AcDbZombieObject
 90
      499
 91
      503
 93
      113
310
904313A35304000000000000494000
  0
ACAD_PROXY_OBJECT
  5
53
102
{ACAD_REACTORS
330
47
102
}
330
47
100
AcDbZombieObject
 90
      499
 91
      503
 93
      121
310
905313A3130304000000000000594000
  0
ACAD_PROXY_OBJECT
  5
54
102
{ACAD_REACTORS
330
47
102
}
330
47
100
AcDbZombieObject
 90
      499
 91
      503
 93
      105
310
903323A310000000000000010100
  0
ACAD_PROXY_OBJECT
  5
55
102
{ACAD_REACTORS
330
47
102
}
330
47
100
AcDbZombieObject
 90
      499
 91
      503
 93
      105
310
903343A310000000000000410100
  0
ACAD_PROXY_OBJECT
  5
56
102
{ACAD_REACTORS
330
47
102
}
330
47
100
AcDbZombieObject
 90
      499
 91
      503
 93
      105
310
903383A310000000000000810100
  0
ACAD_PROXY_OBJECT
  5
57
102
{ACAD_REACTORS
330
47
102
}
330
47
100
AcDbZombieObject
 90
      499
 91
      503
 93
      113
310
90431303A310000000000000910100
  0
ACAD_PROXY_OBJECT
  5
58
102
{ACAD_REACTORS
330
47
102
}
330
47
100
AcDbZombieObject
 90
      499
 91
      503
 93
      121
310
9053130303A310000000000001650100
  0
ACAD_PROXY_OBJECT
  5
59
102
{ACAD_REACTORS
330
47
102
}
330
47
100
AcDbZombieObject
 90
      499
 91
      503
 93
      257
310
90E312F31323822203D2031272D3022000000000000200FC000000000000284000
  0
ACAD_PROXY_OBJECT
  5
5A
102
{ACAD_REACTORS
330
47
102
}
330
47
100
AcDbZombieObject
 90
      499
 91
      503
 93
      249
310
90D312F363422203D2031272D3022000000000000240FC000000000000284000
  0
ACAD_PROXY_OBJECT
  5
5B
102
{ACAD_REACTORS
330
47
102
}
330
47
100
AcDbZombieObject
 90
      499
 91
      503
 93
      249
310
90D312F333222203D2031272D3022000000000000280FC000000000000284000
  0
ACAD_PROXY_OBJECT
  5
5C
102
{ACAD_REACTORS
330
47
102
}
330
47
100
AcDbZombieObject
 90
      499
 91
      503
 93
      249
310
90D312F313622203D2031272D30220000000000002C0FC000000000000284000
  0
ACAD_PROXY_OBJECT
  5
5D
102
{ACAD_REACTORS
330
47
102
}
330
47
100
AcDbZombieObject
 90
      499
 91
      503
 93
      249
310
90D332F333222203D2031272D30220000000000002E0FC000000000000284000
  0
ACAD_PROXY_OBJECT
  5
5E
102
{ACAD_REACTORS
330
47
102
}
330
47
100
AcDbZombieObject
 90
      499
 91
      503
 93
      241
310
90C312F3822203D2031272D3022000000000000300FC000000000000284000
  0
ACAD_PROXY_OBJECT
  5
5F
102
{ACAD_REACTORS
330
47
102
}
330
47
100
AcDbZombieObject
 90
      499
 91
      503
 93
      249
310
90D332F313622203D2031272D3022000000000000320FC000000000000284000
  0
ACAD_PROXY_OBJECT
  5
60
102
{ACAD_REACTORS
330
47
102
}
330
47
100
AcDbZombieObject
 90
      499
 91
      503
 93
      241
310
90C312F3422203D2031272D3022000000000000340FC000000000000284000
  0
ACAD_PROXY_OBJECT
  5
61
102
{ACAD_REACTORS
330
47
102
}
330
47
100
AcDbZombieObject
 90
      499
 91
      503
 93
      241
310
90C332F3822203D2031272D3022000000000000360FC000000000000284000
  0
ACAD_PROXY_OBJECT
  5
62
102
{ACAD_REACTORS
330
47
102
}
330
47
100
AcDbZombieObject
 90
      499
 91
      503
 93
      241
310
90C312F3222203D2031272D3022000000000000380FC000000000000284000
  0
ACAD_PROXY_OBJECT
  5
63
102
{ACAD_REACTORS
330
47
102
}
330
47
100
AcDbZombieObject
 90
      499
 91
      503
 93
      241
310
90C332F3422203D2031272D30220000000000003A0FC000000000000284000
  0
ACAD_PROXY_OBJECT
  5
64
102
{ACAD_REACTORS
330
47
102
}
330
47
100
AcDbZombieObject
 90
      499
 91
      503
 93
      161
310
90A3122203D2031272D30224000000000000284000
  0
ACAD_PROXY_OBJECT
  5
65
102
{ACAD_REACTORS
330
47
102
}
330
47
100
AcDbZombieObject
 90
      499
 91
      503
 93
      257
310
90E312D312F3222203D2031272D30220000000000003E0FC000000000000284000
  0
ACAD_PROXY_OBJECT
  5
66
102
{ACAD_REACTORS
330
47
102
}
330
47
100
AcDbZombieObject
 90
      499
 91
      503
 93
      225
310
90A3322203D2031272D302200000000000002100000000000000284000
  0
ACAD_PROXY_OBJECT
  5
67
102
{ACAD_REACTORS
330
47
102
}
330
47
100
AcDbZombieObject
 90
      499
 91
      503
 93
      225
310
90A3622203D2031272D302200000000000006100000000000000284000
  0
ACAD_PROXY_OBJECT
  5
68
102
{ACAD_REACTORS
330
47
102
}
330
47
100
AcDbZombieObject
 90
      499
 91
      503
 93
      249
310
90D31272D3022203D2031272D30220000000000000A100000000000000284000
  0
ACAD_PROXY_OBJECT
  5
2F
102
{ACAD_REACTORS
330
2A
102
}
330
2A
100
AcDbZombieObject
 90
      499
 91
      501
 93
      436
310
42CC9915DA5C99599C985B595049028333333333333E33F0000000000000F90107901411070040501600405405064090741402480A0340
1001
ACAD
1000
AcDbSavedByObjectVersion
1070
     0
  0
ACAD_PROXY_OBJECT
  5
32
102
{ACAD_REACTORS
330
2A
102
}
330
2A
100
AcDbZombieObject
 90
      499
 91
      501
 93
      388
310
4150985CDA58D07406404333333333333E33F0000000000000F90107A41107004050150841D405064090741402480A0350
1001
ACAD
1000
AcDbSavedByObjectVersion
1070
     0
  0
ACAD_PROXY_OBJECT
  5
36
102
{ACAD_REACTORS
330
2A
102
}
330
2A
100
AcDbZombieObject
 90
      499
 91
      501
 93
      428
310
42109C9A59DA1D195B90C409028333333333333E33F0000000000000F9010790141107004050150841D405064090741402480A029950
1001
ACAD
1000
AcDbSavedByObjectVersion
1070
     0
  0
ACAD_PROXY_OBJECT
  5
3A
102
{ACAD_REACTORS
330
2A
102
}
330
2A
100
AcDbZombieObject
 90
      499
 91
      501
 93
      452
310
42D0DBDB1BDC90DA185B99D95104090240C333333333333E33F0000000000000F90108901411070040501508421405064090741402480A0350
1001
ACAD
1000
AcDbSavedByObjectVersion
1070
     0
  0
ACAD_PROXY_OBJECT
  5
34
102
{ACAD_REACTORS
330
2A
102
}
330
2A
100
AcDbZombieObject
 90
      499
 91
      501
 93
      500
310
4290DBDB98D95C1D1D585B10940D028333333333333E33F0000000000000F90107902409070040501000000000018199010841D405064090740C02480A0340
1001
ACAD
1000
AcDbSavedByObjectVersion
1070
     0
  0
ACAD_PROXY_OBJECT
  5
35
102
{ACAD_REACTORS
330
2A
102
}
330
2A
100
AcDbZombieObject
 90
      499
 91
      501
 93
      412
310
40D11A5B50B409028333333333333E33F0000000000000F9010790141107004050150841D405064090741402480A02677FFFFFD0
1001
ACAD
1000
AcDbSavedByObjectVersion
1070
     0
  0
ACAD_PROXY_OBJECT
  5
3D
102
{ACAD_REACTORS
330
2A
102
}
330
2A
100
AcDbZombieObject
 90
      499
 91
      501
 93
      452
310
43115919D950DBDB1BDC93D999916409028333333333333E33F0000000000000F9010790141107004050150841D405064090741402480A0350
1001
ACAD
1000
AcDbSavedByObjectVersion
1070
     0
  0
ACAD_PROXY_OBJECT
  5
39
102
{ACAD_REACTORS
330
2A
102
}
330
2A
100
AcDbZombieObject
 90
      499
 91
      501
 93
      444
310
42D19858D95C185D1D195C9B90F409028333333333333E33F0000000000000F9010790141107004050150841D405064090741402480A0350
1001
ACAD
1000
AcDbSavedByObjectVersion
1070
     0
  0
ACAD_PROXY_OBJECT
  5
2B
102
{ACAD_REACTORS
330
2A
102
}
330
2A
100
AcDbZombieObject
 90
      499
 91
      501
 93
      380
310
41119B185D240901404333333333333E33F0000000000000F9010740A907004050150841D405064090741402480A1B50
1001
ACAD
1000
AcDbSavedByObjectVersion
1070
     0
  0
ACAD_PROXY_OBJECT
  5
2C
102
{ACAD_REACTORS
330
2A
102
}
330
2A
100
AcDbZombieObject
 90
      499
 91
      501
 93
      468
310
43519B185D15DA5D1A115919D95CD0140901404333333333333E33F0000000000000F90107409019070040501600405405064090741402480A1B50
1001
ACAD
1000
AcDbSavedByObjectVersion
1070
     0
  0
ACAD_PROXY_OBJECT
  5
2D
102
{ACAD_REACTORS
330
2A
102
}
330
2A
100
AcDbZombieObject
 90
      499
 91
      501
 93
      404
310
41D1DBDD5C985D5910240902404333333333333E33F0000000000000F9010740A9070040501641D405064090741402480A1B50
1001
ACAD
1000
AcDbSavedByObjectVersion
1070
     0
  0
ACAD_PROXY_OBJECT
  5
2E
102
{ACAD_REACTORS
330
2A
102
}
330
2A
100
AcDbZombieObject
 90
      499
 91
      501
 93
      492
310
4411DBDD5C985D5915DA5D1A115919D95CD0340902404333333333333E33F0000000000000F90107409019070040501600405405064090741402480A1B50
1001
ACAD
1000
AcDbSavedByObjectVersion
1070
     0
  0
ACAD_PROXY_OBJECT
  5
31
102
{ACAD_REACTORS
330
2A
102
}
330
2A
100
AcDbZombieObject
 90
      499
 91
      501
 93
      476
310
41921A5919195B90640502408333333333333E33F0000000000000F901079024090700405020000000000001110200405405064090740C02480A0340
1001
ACAD
1000
AcDbSavedByObjectVersion
1070
     0
  0
ACAD_PROXY_OBJECT
  5
3B
102
{ACAD_REACTORS
330
2A
102
}
330
2A
100
AcDbZombieObject
 90
      499
 91
      501
 93
      428
310
42529A5D1D195C93D999914409028333333333333E33F0000000000000F9010790141107004050150A41D405064090741402480A0350
1001
ACAD
1000
AcDbSavedByObjectVersion
1070
     0
  0
ACAD_PROXY_OBJECT
  5
38
102
{ACAD_REACTORS
330
2A
102
}
330
2A
100
AcDbZombieObject
 90
      499
 91
      501
 93
      444
310
42D31A5B995C185D1D195C9B90E409028333333333333E33F0000000000000F9010790141107004050750841D405064090741402483A0350
1001
ACAD
1000
AcDbSavedByObjectVersion
1070
     0
  0
ACAD_PROXY_OBJECT
  5
3C
102
{ACAD_REACTORS
330
2A
102
}
330
2A
100
AcDbZombieObject
 90
      499
 91
      501
 93
      444
310
42D3DD995C9A185B99D3D999915409028333333333333E33F0000000000000F9010790141107004050150941D405064090741402480A0350
1001
ACAD
1000
AcDbSavedByObjectVersion
1070
     0
  0
ACAD_PROXY_OBJECT
  5
33
102
{ACAD_REACTORS
330
2A
102
}
330
2A
100
AcDbZombieObject
 90
      499
 91
      501
 93
      428
310
425499585B1A5CDD1A58D08409038333333333333E33F0000000000000F9010740A907004050150800405405064090740C02480A1B40
1001
ACAD
1000
AcDbSavedByObjectVersion
1070
     0
  0
ACAD_PROXY_OBJECT
  5
42
102
{ACAD_REACTORS
330
2A
102
}
330
2A
100
AcDbZombieObject
 90
      499
 91
      501
 93
      420
310
4194DA1859195911B40902404333333333333E33F0000000000000F9010740A41107004050150800405405064090840C02480A0B40
1001
ACAD
1000
AcDbSavedByObjectVersion
1070
     0
  0
ACAD_PROXY_OBJECT
  5
41
102
{ACAD_REACTORS
330
2A
102
}
330
2A
100
AcDbZombieObject
 90
      499
 91
      501
 93
      516
310
4454DA18591959081DDA5D1A08195919D95CD1A40902404333333333333E33F0000000000000F901074090142907004050250800405405064090740C02480A0B40
1001
ACAD
1000
AcDbSavedByObjectVersion
1070
     0
  0
ACAD_PROXY_OBJECT
  5
3E
102
{ACAD_REACTORS
330
2A
102
}
330
2A
100
AcDbZombieObject
 90
      499
 91
      501
 93
      532
310
4394DA1859195CC81BD98811DC985E5174090240C333333333333E33F0000000000000F901079024090741D01000000000000111010841D405064090740C02480A0340
1001
ACAD
1000
AcDbSavedByObjectVersion
1070
     0
  0
ACAD_PROXY_OBJECT
  5
3F
102
{ACAD_REACTORS
330
2A
102
}
330
2A
100
AcDbZombieObject
 90
      499
 91
      501
 93
      476
310
41D4DAD95D18DA1E51840502408333333333333E33F0000000000000F901079024090741D01000000000000111010B41D405064090741802480A0340
1001
ACAD
1000
AcDbSavedByObjectVersion
1070
     0
  0
ACAD_PROXY_OBJECT
  5
37
102
{ACAD_REACTORS
330
2A
102
}
330
2A
100
AcDbZombieObject
 90
      499
 91
      501
 93
      412
310
41D51A1A58DAD95B90D409028333333333333E33F0000000000000F9010790141107004050150C41D405064090741402480A0350
1001
ACAD
1000
AcDbSavedByObjectVersion
1070
     0
  0
ACAD_PROXY_OBJECT
  5
30
102
{ACAD_REACTORS
330
2A
102
}
330
2A
100
AcDbZombieObject
 90
      499
 91
      501
 93
      420
310
4255DA5C99599C985B595059028333333333333E33F0000000000000F90107901411070040501600405405064090740C02480A0340
1001
ACAD
1000
AcDbSavedByObjectVersion
1070
     0
  0
ACAD_PROXY_OBJECT
  5
40
102
{ACAD_REACTORS
330
2A
102
}
330
2A
100
AcDbZombieObject
 90
      499
 91
      501
 93
      404
310
41560B54985E51940902404000000000000E03F0000000000000F9010740501907004050150841D405064090740C02480A1B40
1001
ACAD
1000
AcDbSavedByObjectVersion
1070
     0
  0
DICTIONARYVAR
  5
176
102
{ACAD_REACTORS
330
16F
102
}
330
16F
100
DictionaryVariables
280
     0
  1
1:1
  0
DICTIONARYVAR
  5
171
102
{ACAD_REACTORS
330
16F
102
}
330
16F
100
DictionaryVariables
280
     0
  1
Standard
  0
DICTIONARYVAR
  5
170
102
{ACAD_REACTORS
330
16F
102
}
330
16F
100
DictionaryVariables
280
     0
  1
Standard
  0
DICTIONARYVAR
  5
174
102
{ACAD_REACTORS
330
16F
102
}
330
16F
100
DictionaryVariables
280
     0
  1
2
  0
DICTIONARYVAR
  5
175
102
{ACAD_REACTORS
330
16F
102
}
330
16F
100
DictionaryVariables
280
     0
  1
1
  0
DICTIONARYVAR
  5
177
102
{ACAD_REACTORS
330
16F
102
}
330
16F
100
DictionaryVariables
280
     0
  1
1
  0
DICTIONARY
  5
17A
330
45
100
AcDbDictionary
  3
ACAD_XREC_ROUNDTRIP
360
17B
1001
ACAD
1000
TREAT_AS_HARD
1070
     1
  0
DICTIONARY
  5
178
330
44
100
AcDbDictionary
  3
ACAD_XREC_ROUNDTRIP
360
179
1001
ACAD
1000
TREAT_AS_HARD
1070
     1
  0
DICTIONARY
  5
17C
330
46
100
AcDbDictionary
  3
ACAD_XREC_ROUNDTRIP
360
17D
1001
ACAD
1000
TREAT_AS_HARD
1070
     1
  0
XRECORD
  5
17B
102
{ACAD_REACTORS
330
17A
102
}
330
17A
100
AcDbXrecord
102
MATERIAL
148
0.0
149
0.0
149
0.0
 93
        0
 94
      127
282
     0
 72
     1
 77
     1
171
     1
175
     1
179
     1
273
     0
  0
XRECORD
  5
179
102
{ACAD_REACTORS
330
178
102
}
330
178
100
AcDbXrecord
102
MATERIAL
148
0.0
149
0.0
149
0.0
 93
        0
 94
      127
282
     0
 72
     1
 77
     1
171
     1
175
     1
179
     1
273
     0
  0
XRECORD
  5
17D
102
{ACAD_REACTORS
330
17C
102
}
330
17C
100
AcDbXrecord
102
MATERIAL
148
0.0
149
0.0
149
0.0
 93
        0
 94
      127
282
     0
 72
     1
 77
     1
171
     1
175
     1
179
     1
273
     0
  0
ENDSEC
  0
EOF
