**ABCDEFGHIJKLMNOPQRSTUVWXYZabcdefghijklmnopqrstuvwxyz**************************
**PARASOLID !"#$%&'()*+,-./:;<=>?@[\]^_`{|}~0123456789**************************
**PART1;
MC=x86;
MC_MODEL=x86 Family 6 Model 1 Stepping 6, GenuineIntel;
MC_ID=unknown;
OS=Windows_NT;
OS_RELEASE=unknown;
FRU=Parasolid Version 10.0, build 230, 12- 3-1998;
APPL=SolidWorks 98Plus-1998341;
SITE=;
USER=unknown;
FORMAT=text;
GUISE=transmit;
KEY=LONGBAR;
FILE=LONGBAR.x_t;
DATE=Thu Feb 11 14:39:04 1999;
**PART2;
SCH=SCH_1000230_10004;
USFLD_SIZE=0;
**PART3;
**END_OF_HEADER*****************************************************************
T51 : TRANSMIT FILE created by modeller version 100023017 SCH_1000230_100040 10
 1 8 0 0 0 0 0 0 0 1e3 1e-8 0 0 0 1 0 1 2 11 2 7 0 1 3 4 1 5 0 0 0 12 3 116 6 7
 0 0 0 0 1e3 1e-8 2 8 0 1 0 1 1 9 10 11 12 13 14 15 100 4 8 2 0 0 1 0 0 0 1 0 0
 0 1 0 -2220446049250315e-31 17 1 1 ?11 5 5 0 1 8 16 1 17 2 0 0 12 8 116 18 19 0
 0 0 0 1e3 1e-8 5 20 3 1 0 1 1 21 22 23 24 25 26 27 100 16 6 5 0 0 1 0 0 0 1 0 0
 0 1 -4440892098500625e-31 2220446049250315e-31 7 1 1 ?11 17 3 0 1 20 28 1 29 5
 0 0 12 20 116 30 31 0 0 0 0 1e3 1e-8 17 32 8 1 0 1 1 33 34 35 36 37 38 39 100 2
8 4 17 0 0 1 0 0 0 1 0 0 0 1 -4440892098500625e-31 -3469446951953615e-33 2 1 1 ?
11 29 1 0 1 32 40 1 0 17 0 0 12 32 116 41 42 0 0 0 0 1e3 1e-8 29 43 20 1 0 1 1 4
4 45 46 47 48 49 50 100 40 2 29 0 0 1 0 0 0 1 0 0 0 1 0 0 0 1 0 ?81 1 41 116 51
 32 0 0 0 0 52 70 42 0 32 0 0 4 2 20 4 53 53 1 T13 44 25 0 32 0 54 0 0 55 0 50 4
5 91 0 56 57 0 0 +0 0 2 1001483571081362e-47 1 0 -1 1001483571081362e-47 0 30 46
 87 0 49 58 0 0 +0 0 2 0 0 -1 29 47 23 0 50 59 0 0 0 2 19 48 37 0 32 55 0 60 V16
 49 81 0 ?61 0 62 46 0 0 32 18 50 22 0 63 0 64 47 ?32 17 63 65 66 67 50 61 49 0
 68 -18 64 20 0 69 50 70 59 ?32 17 69 71 72 73 64 74 62 0 75 -18 70 18 0 76 64 7
7 78 ?32 29 59 21 0 64 78 47 2 -2002967142162725e-47 2 29 78 19 0 70 79 59 2 2 2
 29 79 17 0 77 80 78 0 2 2 18 77 16 0 81 70 82 79 ?32 29 80 70 0 82 83 79 0 0 0
 18 82 55 0 61 77 84 80 ?32 29 83 71 0 84 85 80 2 -2002967142162725e-47 0 18 84
 58 0 74 82 86 83 ?32 29 85 72 0 86 87 83 2 2 0 18 86 57 0 88 84 89 85 ?32 29 87
 73 0 89 0 85 0 2 0 18 89 56 0 90 86 0 87 ?32 17 90 65 67 66 89 81 91 0 92 +15 6
5 82 0 63 54 0 17 67 65 63 90 82 92 93 0 94 -17 66 65 90 63 77 68 95 0 96 +17 81
 97 98 99 77 90 91 0 66 -16 91 74 0 ?90 100 101 102 0 0 32 17 92 103 104 94 89 6
7 93 0 99 +15 103 62 0 92 105 0 17 104 103 106 92 86 99 107 0 108 -17 94 103 92
 106 82 73 109 0 0 -16 93 47 0 ?92 107 0 110 0 0 32 17 99 97 81 88 89 104 107 0
 0 +15 97 34 0 98 111 0 17 88 97 99 98 86 76 100 0 104 +16 107 43 0 ?99 112 93 1
13 0 0 32 16 112 51 0 ?106 109 107 114 0 0 32 30 113 68 0 107 110 114 0 +2 2 0 -
1 1110223024625156e-31 0 30 110 69 0 93 0 113 0 +0 0 0 0 1 0 30 114 67 0 112 113
 115 0 +2 2 0 -1110223024625156e-31 -1 0 30 115 66 0 109 114 116 0 +0 0 0 1 -100
1483571081362e-47 0 16 109 39 0 ?73 95 112 115 0 0 32 30 116 5 0 95 115 117 0 +0
 0 2 0 1 0 16 95 4 0 ?66 118 109 116 0 0 32 30 117 8 0 118 116 119 0 +2 2 2 -1 1
110223024625156e-31 0 16 118 7 0 ?96 120 95 117 0 0 32 30 119 11 0 120 117 121 0
 +2 2 2 -1110223024625156e-31 -1 0 16 120 10 0 ?75 101 118 119 0 0 32 30 121 14
 0 101 119 102 0 +0 0 2 1 -1001483571081362e-47 0 16 101 13 0 ?122 91 120 121 0
 0 32 30 102 84 0 91 121 123 0 +0 2 2 0 0 -1 30 123 85 0 100 102 58 0 +2 2 2 0 0
 -1 16 100 75 0 ?88 62 91 123 0 0 32 30 58 86 0 62 123 46 0 +2 -2002967142162725
e-47 2 0 0 -1 16 62 78 0 ?74 49 100 58 0 0 32 17 74 124 108 75 84 69 62 0 106 +1
5 124 76 0 76 125 0 17 108 124 76 74 86 106 112 0 0 -17 75 124 74 76 64 126 120
 0 122 +17 106 103 94 104 84 108 112 0 73 +17 73 71 69 61 84 94 109 0 0 +15 71 7
9 0 69 56 0 17 61 71 73 72 82 63 49 0 67 +17 72 71 61 69 50 122 101 0 0 -17 122
 127 126 68 64 72 101 0 0 +15 127 3 0 68 128 0 17 126 127 96 122 70 75 120 0 0 -
17 68 127 122 96 50 66 95 0 72 -17 96 127 68 126 77 98 118 0 0 +17 98 97 88 81 7
0 96 118 0 126 -14 128 1 129 ?105 111 127 44 130 -0 0 111 125 60 81 1 129 114 13
1 128 0 0 132 133 134 14 105 61 133 ?0 128 103 44 135 +0 0 0 111 60 14 111 35 13
2 ?128 125 97 44 136 -0 0 105 128 60 50 130 2 0 128 135 137 0 +0 0 2 0 0 -1 -1 0
 0 14 125 77 138 ?111 56 124 44 57 +0 0 128 56 60 13 60 36 0 0 0 0 0 0 48 54 14
 54 83 139 ?56 0 65 44 137 +0 0 56 0 60 81 1 139 110 131 54 0 0 0 140 141 14 56
 80 140 ?125 54 71 44 45 -0 0 125 54 60 50 137 88 0 54 130 136 0 +0 0 2 -1 0 0 0
 0 1 50 136 89 0 111 137 57 0 +2 2 2 -1110223024625156e-31 -1 0 1 -1110223024625
156e-31 0 50 57 90 0 125 136 45 0 +2 2 2 1 -1110223024625156e-31 0 1110223024625
156e-31 1 0 81 1 140 111 131 56 0 0 139 138 142 80 1 131 0 143 8001 0 0 0 0 3 5
 0 0 FFFFTFTFFFFFF2 81 1 138 112 131 125 0 0 140 132 144 83 3 142 .7529411764705
88 .752941176470588 .752941176470588 81 1 132 113 131 111 0 0 138 129 145 83 3 1
44 .752941176470588 .752941176470588 .752941176470588 83 3 145 .752941176470588
 .752941176470588 .752941176470588 79 15 143 SDL/TYSA_COLOUR83 3 141 .7529411764
70588 .752941176470588 .752941176470588 50 135 65 0 105 0 130 0 +0 0 0 0 0 -1 -1
 0 0 81 1 133 115 131 105 0 0 129 0 146 83 3 146 .752941176470588 .7529411764705
88 .752941176470588 83 3 134 .752941176470588 .752941176470588 .752941176470588
 17 76 124 75 108 70 88 100 0 98 -19 55 24 0 32 0 48 44 S74 20 53 2 0 133 41 0 0
 0 0 0 0 0 0 0 0 0 0 0 0 0 0 0 0 80 1 51 147 148 8017 0 0 0 0 0 0 0 0 TTTTTTTTTT
TTT3 84 5 52 Part179 13 148 SDL/TYSA_NAME81 1 30 116 51 20 0 0 0 0 149 70 31 0 2
0 0 0 4 2 20 4 150 150 1 T13 33 25 0 20 0 151 0 0 152 0 50 34 91 0 153 154 0 0 +
0 0 5 0 1 0 0 0 1 30 35 87 0 38 155 0 0 +0 0 5 0 0 -1 29 36 23 0 39 156 0 0 0 5
 19 37 37 0 20 152 0 157 V16 38 81 0 ?158 0 159 35 0 0 20 18 39 22 0 160 0 161 3
6 ?20 17 160 162 163 164 39 158 38 0 165 -18 161 20 0 166 39 167 156 ?20 17 166
 168 169 170 161 171 159 0 172 -18 167 18 0 173 161 174 175 ?20 29 156 21 0 161
 175 36 2 0 5 29 175 19 0 167 176 156 2 2 5 29 176 17 0 174 177 175 0 2 5 18 174
 16 0 178 167 179 176 ?20 29 177 70 0 179 180 176 0 0 0 18 179 55 0 158 174 181
 177 ?20 29 180 71 0 181 182 177 2 0 0 18 181 58 0 171 179 183 180 ?20 29 182 72
 0 183 184 180 2 2 0 18 183 57 0 185 181 186 182 ?20 29 184 73 0 186 0 182 0 2 0
 18 186 56 0 187 183 0 184 ?20 17 187 162 164 163 186 178 188 0 189 +15 162 82 0
 160 151 0 17 164 162 160 187 179 189 190 0 191 -17 163 162 187 160 174 165 192
 0 193 +17 178 194 195 196 174 187 188 0 163 -16 188 74 0 ?187 197 198 199 0 0 2
0 17 189 200 201 191 186 164 190 0 196 +15 200 62 0 189 202 0 17 201 200 203 189
 183 196 204 0 205 -17 191 200 189 203 179 170 206 0 0 -16 190 47 0 ?189 204 0 2
07 0 0 20 17 196 194 178 185 186 201 204 0 0 +15 194 34 0 195 208 0 17 185 194 1
96 195 183 173 197 0 201 +16 204 43 0 ?196 209 190 210 0 0 20 16 209 51 0 ?203 2
06 204 211 0 0 20 30 210 68 0 204 207 211 0 +2 2 0 -1 1110223024625156e-31 0 30
 207 69 0 190 0 210 0 +0 0 0 0 1 0 30 211 67 0 209 210 212 0 +2 2 0 -22204460492
50315e-31 -1 0 30 212 66 0 206 211 213 0 +0 0 0 1 0 0 16 206 39 0 ?170 192 209 2
12 0 0 20 30 213 5 0 192 212 214 0 +0 0 5 0 1 0 16 192 4 0 ?163 215 206 213 0 0
 20 30 214 8 0 215 213 216 0 +2 2 5 -1 1110223024625156e-31 0 16 215 7 0 ?193 21
7 192 214 0 0 20 30 216 11 0 217 214 218 0 +2 2 5 -2220446049250315e-31 -1 0 16
 217 10 0 ?172 198 215 216 0 0 20 30 218 14 0 198 216 199 0 +0 0 5 1 0 0 16 198
 13 0 ?219 188 217 218 0 0 20 30 199 84 0 188 218 220 0 +0 2 5 0 0 -1 30 220 85
 0 197 199 155 0 +2 2 5 0 0 -1 16 197 75 0 ?185 159 188 220 0 0 20 30 155 86 0 1
59 220 35 0 +2 0 5 0 0 -1 16 159 78 0 ?171 38 197 155 0 0 20 17 171 221 205 172
 181 166 159 0 203 +15 221 76 0 173 222 0 17 205 221 173 171 183 203 209 0 0 -17
 172 221 171 173 161 223 217 0 219 +17 203 200 191 201 181 205 209 0 170 +17 170
 168 166 158 181 191 206 0 0 +15 168 79 0 166 153 0 17 158 168 170 169 179 160 3
8 0 164 +17 169 168 158 166 39 219 198 0 0 -17 219 224 223 165 161 169 198 0 0 +
15 224 3 0 165 225 0 17 223 224 193 219 167 172 217 0 0 -17 165 224 219 193 39 1
63 192 0 169 -17 193 224 165 223 174 195 215 0 0 +17 195 194 185 178 167 193 215
 0 223 -14 225 1 226 ?202 208 224 33 227 -0 0 208 222 157 81 1 226 114 131 225 0
 0 228 229 230 14 202 61 229 ?0 225 200 33 231 +0 0 0 208 157 14 208 35 228 ?225
 222 194 33 232 -0 0 202 225 157 50 227 2 0 225 231 233 0 +0 0 5 0 0 -1 -1 0 0 1
4 222 77 234 ?208 153 221 33 154 +0 0 225 153 157 13 157 36 0 0 0 0 0 0 37 151 1
4 151 83 235 ?153 0 162 33 233 +0 0 153 0 157 81 1 235 110 131 151 0 0 0 236 237
 14 153 80 236 ?222 151 168 33 34 -0 0 222 151 157 50 233 88 0 151 227 232 0 +0
 0 5 -1 0 0 0 0 1 50 232 89 0 208 233 154 0 +2 2 5 -1110223024625156e-31 -1 0 1
 -1110223024625156e-31 0 50 154 90 0 222 232 34 0 +2 2 5 1 -2220446049250315e-31
 0 2220446049250315e-31 1 0 81 1 236 111 131 153 0 0 235 234 238 81 1 234 112 13
1 222 0 0 236 228 239 83 3 238 .752941176470588 .752941176470588 .75294117647058
8 81 1 228 113 131 208 0 0 234 226 240 83 3 239 .752941176470588 .75294117647058
8 .752941176470588 83 3 240 .752941176470588 .752941176470588 .752941176470588 8
3 3 237 .752941176470588 .752941176470588 .752941176470588 50 231 65 0 202 0 227
 0 +0 0 0 0 0 -1 -1 0 0 81 1 229 115 131 202 0 0 226 0 241 83 3 241 .75294117647
0588 .752941176470588 .752941176470588 83 3 230 .752941176470588 .75294117647058
8 .752941176470588 17 173 221 172 205 167 185 197 0 195 -19 152 24 0 20 0 37 33
 S74 20 150 2 0 229 30 0 0 0 0 0 0 0 0 0 0 0 0 0 0 0 0 0 0 84 5 149 Part281 1 18
 116 51 8 0 0 0 0 242 70 19 0 8 0 0 4 2 20 4 243 243 1 T13 21 25 0 8 0 244 0 0 2
45 0 50 22 91 0 246 247 0 0 +0 0 10 0 1 0 0 0 1 30 23 87 0 26 248 0 0 +0 0 10 0
 0 -1 29 24 23 0 27 249 0 0 0 10 19 25 37 0 8 245 0 250 V16 26 81 0 ?251 0 252 2
3 0 0 8 18 27 22 0 253 0 254 24 ?8 17 253 255 256 257 27 251 26 0 258 -18 254 20
 0 259 27 260 249 ?8 17 259 261 262 263 254 264 252 0 265 -18 260 18 0 266 254 2
67 268 ?8 29 249 21 0 254 268 24 2 0 10 29 268 19 0 260 269 249 2 2 10 29 269 17
 0 267 270 268 0 2 10 18 267 16 0 271 260 272 269 ?8 29 270 70 0 272 273 269 0 0
 0 18 272 55 0 251 267 274 270 ?8 29 273 71 0 274 275 270 2 0 0 18 274 58 0 264
 272 276 273 ?8 29 275 72 0 276 277 273 2 2 0 18 276 57 0 278 274 279 275 ?8 29
 277 73 0 279 0 275 0 2 0 18 279 56 0 280 276 0 277 ?8 17 280 255 257 256 279 27
1 281 0 282 +15 255 82 0 253 244 0 17 257 255 253 280 272 282 283 0 284 -17 256
 255 280 253 267 258 285 0 286 +17 271 287 288 289 267 280 281 0 256 -16 281 74
 0 ?280 290 291 292 0 0 8 17 282 293 294 284 279 257 283 0 289 +15 293 62 0 282
 295 0 17 294 293 296 282 276 289 297 0 298 -17 284 293 282 296 272 263 299 0 0
 -16 283 47 0 ?282 297 0 300 0 0 8 17 289 287 271 278 279 294 297 0 0 +15 287 34
 0 288 301 0 17 278 287 289 288 276 266 290 0 294 +16 297 43 0 ?289 302 283 303
 0 0 8 16 302 51 0 ?296 299 297 304 0 0 8 30 303 68 0 297 300 304 0 +2 2 0 -1 11
10223024625156e-31 0 30 300 69 0 283 0 303 0 +0 0 0 0 1 0 30 304 67 0 302 303 30
5 0 +2 2 0 -2220446049250315e-31 -1 0 30 305 66 0 299 304 306 0 +0 0 0 1 0 0 16
 299 39 0 ?263 285 302 305 0 0 8 30 306 5 0 285 305 307 0 +0 0 10 0 1 0 16 285 4
 0 ?256 308 299 306 0 0 8 30 307 8 0 308 306 309 0 +2 2 10 -1 1110223024625156e-
31 0 16 308 7 0 ?286 310 285 307 0 0 8 30 309 11 0 310 307 311 0 +2 2 10 -222044
6049250315e-31 -1 0 16 310 10 0 ?265 291 308 309 0 0 8 30 311 14 0 291 309 292 0
 +0 0 10 1 0 0 16 291 13 0 ?312 281 310 311 0 0 8 30 292 84 0 281 311 313 0 +0 2
 10 0 0 -1 30 313 85 0 290 292 248 0 +2 2 10 0 0 -1 16 290 75 0 ?278 252 281 313
 0 0 8 30 248 86 0 252 313 23 0 +2 0 10 0 0 -1 16 252 78 0 ?264 26 290 248 0 0 8
 17 264 314 298 265 274 259 252 0 296 +15 314 76 0 266 315 0 17 298 314 266 264
 276 296 302 0 0 -17 265 314 264 266 254 316 310 0 312 +17 296 293 284 294 274 2
98 302 0 263 +17 263 261 259 251 274 284 299 0 0 +15 261 79 0 259 246 0 17 251 2
61 263 262 272 253 26 0 257 +17 262 261 251 259 27 312 291 0 0 -17 312 317 316 2
58 254 262 291 0 0 +15 317 3 0 258 318 0 17 316 317 286 312 260 265 310 0 0 -17
 258 317 312 286 27 256 285 0 262 -17 286 317 258 316 267 288 308 0 0 +17 288 28
7 278 271 260 286 308 0 316 -14 318 1 319 ?295 301 317 21 320 -0 0 301 315 250 8
1 1 319 114 131 318 0 0 321 322 323 14 295 61 322 ?0 318 293 21 324 +0 0 0 301 2
50 14 301 35 321 ?318 315 287 21 325 -0 0 295 318 250 50 320 2 0 318 324 326 0 +
0 0 10 0 0 -1 -1 0 0 14 315 77 327 ?301 246 314 21 247 +0 0 318 246 250 13 250 3
6 0 0 0 0 0 0 25 244 14 244 83 328 ?246 0 255 21 326 +0 0 246 0 250 81 1 328 110
 131 244 0 0 0 329 330 14 246 80 329 ?315 244 261 21 22 -0 0 315 244 250 50 326
 88 0 244 320 325 0 +0 0 10 -1 0 0 0 0 1 50 325 89 0 301 326 247 0 +2 2 10 -1110
223024625156e-31 -1 0 1 -1110223024625156e-31 0 50 247 90 0 315 325 22 0 +2 2 10
 1 -2220446049250315e-31 0 2220446049250315e-31 1 0 81 1 329 111 131 246 0 0 328
 327 331 81 1 327 112 131 315 0 0 329 321 332 83 3 331 .752941176470588 .7529411
76470588 .752941176470588 81 1 321 113 131 301 0 0 327 319 333 83 3 332 .7529411
76470588 .752941176470588 .752941176470588 83 3 333 .752941176470588 .7529411764
70588 .752941176470588 83 3 330 .752941176470588 .752941176470588 .7529411764705
88 50 324 65 0 295 0 320 0 +0 0 0 0 0 -1 -1 0 0 81 1 322 115 131 295 0 0 319 0 3
34 83 3 334 .752941176470588 .752941176470588 .752941176470588 83 3 323 .7529411
76470588 .752941176470588 .752941176470588 17 266 314 265 298 260 278 290 0 288
 -19 245 24 0 8 0 25 21 S74 20 243 2 0 322 18 0 0 0 0 0 0 0 0 0 0 0 0 0 0 0 0 0
 0 84 5 242 Part381 1 6 116 51 3 0 0 0 0 335 70 7 0 3 0 0 4 2 20 4 336 336 1 T13
 9 25 0 3 0 337 0 0 338 0 50 10 91 0 339 340 0 0 +0 0 3 0 1 0 0 0 1 30 11 87 0 1
4 341 0 0 +0 0 3 0 0 -1 29 12 23 0 15 342 0 0 0 3 19 13 37 0 3 338 0 343 V16 14
 81 0 ?344 0 345 11 0 0 3 18 15 22 0 346 0 347 12 ?3 17 346 348 349 350 15 344 1
4 0 351 -18 347 20 0 352 15 353 342 ?3 17 352 354 355 356 347 357 345 0 358 -18
 353 18 0 359 347 360 361 ?3 29 342 21 0 347 361 12 2 0 3 29 361 19 0 353 362 34
2 2 2 3 29 362 17 0 360 363 361 0 2 3 18 360 16 0 364 353 365 362 ?3 29 363 70 0
 365 366 362 0 0 0 18 365 55 0 344 360 367 363 ?3 29 366 71 0 367 368 363 2 0 0
 18 367 58 0 357 365 369 366 ?3 29 368 72 0 369 370 366 2 2 0 18 369 57 0 371 36
7 372 368 ?3 29 370 73 0 372 0 368 0 2 0 18 372 56 0 373 369 0 370 ?3 17 373 348
 350 349 372 364 374 0 375 +15 348 82 0 346 337 0 17 350 348 346 373 365 375 376
 0 377 -17 349 348 373 346 360 351 378 0 379 +17 364 380 381 382 360 373 374 0 3
49 -16 374 74 0 ?373 383 384 385 0 0 3 17 375 386 387 377 372 350 376 0 382 +15
 386 62 0 375 388 0 17 387 386 389 375 369 382 390 0 391 -17 377 386 375 389 365
 356 392 0 0 -16 376 47 0 ?375 390 0 393 0 0 3 17 382 380 364 371 372 387 390 0
 0 +15 380 34 0 381 394 0 17 371 380 382 381 369 359 383 0 387 +16 390 43 0 ?382
 395 376 396 0 0 3 16 395 51 0 ?389 392 390 397 0 0 3 30 396 68 0 390 393 397 0
 +2 2 0 -1 1110223024625156e-31 0 30 393 69 0 376 0 396 0 +0 0 0 0 1 0 30 397 67
 0 395 396 398 0 +2 2 0 -2220446049250315e-31 -1 0 30 398 66 0 392 397 399 0 +0
 0 0 1 0 0 16 392 39 0 ?356 378 395 398 0 0 3 30 399 5 0 378 398 400 0 +0 0 3 0
 1 0 16 378 4 0 ?349 401 392 399 0 0 3 30 400 8 0 401 399 402 0 +2 2 3 -1 111022
3024625156e-31 0 16 401 7 0 ?379 403 378 400 0 0 3 30 402 11 0 403 400 404 0 +2
 2 3 -2220446049250315e-31 -1 0 16 403 10 0 ?358 384 401 402 0 0 3 30 404 14 0 3
84 402 385 0 +0 0 3 1 0 0 16 384 13 0 ?405 374 403 404 0 0 3 30 385 84 0 374 404
 406 0 +0 2 3 0 0 -1 30 406 85 0 383 385 341 0 +2 2 3 0 0 -1 16 383 75 0 ?371 34
5 374 406 0 0 3 30 341 86 0 345 406 11 0 +2 0 3 0 0 -1 16 345 78 0 ?357 14 383 3
41 0 0 3 17 357 407 391 358 367 352 345 0 389 +15 407 76 0 359 408 0 17 391 407
 359 357 369 389 395 0 0 -17 358 407 357 359 347 409 403 0 405 +17 389 386 377 3
87 367 391 395 0 356 +17 356 354 352 344 367 377 392 0 0 +15 354 79 0 352 339 0
 17 344 354 356 355 365 346 14 0 350 +17 355 354 344 352 15 405 384 0 0 -17 405
 410 409 351 347 355 384 0 0 +15 410 3 0 351 411 0 17 409 410 379 405 353 358 40
3 0 0 -17 351 410 405 379 15 349 378 0 355 -17 379 410 351 409 360 381 401 0 0 +
17 381 380 371 364 353 379 401 0 409 -14 411 1 412 ?388 394 410 9 413 -0 0 394 4
08 343 81 1 412 114 131 411 0 0 414 415 416 14 388 61 415 ?0 411 386 9 417 +0 0
 0 394 343 14 394 35 414 ?411 408 380 9 418 -0 0 388 411 343 50 413 2 0 411 417
 419 0 +0 0 3 0 0 -1 -1 0 0 14 408 77 420 ?394 339 407 9 340 +0 0 411 339 343 13
 343 36 0 0 0 0 0 0 13 337 14 337 83 421 ?339 0 348 9 419 +0 0 339 0 343 81 1 42
1 110 131 337 0 0 0 422 423 14 339 80 422 ?408 337 354 9 10 -0 0 408 337 343 50
 419 88 0 337 413 418 0 +0 0 3 -1 0 0 0 0 1 50 418 89 0 394 419 340 0 +2 2 3 -11
10223024625156e-31 -1 0 1 -1110223024625156e-31 0 50 340 90 0 408 418 10 0 +2 2
 3 1 -2220446049250315e-31 0 2220446049250315e-31 1 0 81 1 422 111 131 339 0 0 4
21 420 424 81 1 420 112 131 408 0 0 422 414 425 83 3 424 .752941176470588 .75294
1176470588 .752941176470588 81 1 414 113 131 394 0 0 420 412 426 83 3 425 .75294
1176470588 .752941176470588 .752941176470588 83 3 426 .752941176470588 .75294117
6470588 .752941176470588 83 3 423 .752941176470588 .752941176470588 .75294117647
0588 50 417 65 0 388 0 413 0 +0 0 0 0 0 -1 -1 0 0 81 1 415 115 131 388 0 0 412 0
 427 83 3 427 .752941176470588 .752941176470588 .752941176470588 83 3 416 .75294
1176470588 .752941176470588 .752941176470588 17 359 407 358 391 353 371 383 0 38
1 -19 338 24 0 3 0 13 9 S74 20 336 2 0 415 6 0 0 0 0 0 0 0 0 0 0 0 0 0 0 0 0 0 0
 84 5 335 Part41 0 
