2800 0 1 0           
7 Spatial 12 ACIS 28.0 NT 24 Thu Jul 25 11:22:45 2019 
1 9.9999999999999995e-07 1e-10 
T @52 RQYECMKFG7W6SX2PN8MDHGESU7MCQMQDHAFVMEP5Y8SMF87EB8J4 
body $1 -1 -1 $-1 0 $2 $-1 $3 T -1.5874999999999999 -1.5874999999999999 -50 1.5874999999999999 1.5874999999999999 50 #
string_attrib-name_attrib-gen-attrib $-1 -1 $4 $-1 $0 2 1 1 1 1 1 1 1 1 1 1 1 1 1 0 1 1 1 @17 ATTRIB_XACIS_NAME @3 rod #
lump $-1 -1 -1 $-1 $-1 $5 $0 T -1.5874999999999999 -1.5874999999999999 -50 1.5874999999999999 1.5874999999999999 50 #
transform $-1 -1 1 0 0 0 1 0 0 0 1 0 0 0 1 no_rotate no_reflect no_shear #
rgb_color-st-attrib $-1 -1 $6 $1 $0 2 1 2 1 1 1 1 1 1 1 1 1 1 1 0 1 1 1 0.50196078431372548 0.50196078431372548 0.50196078431372548 #
shell $-1 -1 -1 $-1 $-1 $-1 $7 $-1 $2 T -1.5874999999999999 -1.5874999999999999 -50 1.5874999999999999 1.5874999999999999 50 #
properties-ansoft-attrib $-1 -1 $-1 $4 $0 1 1 1 1 1 1 1 1 1 1 1 1 0 1 0 1 1 1 @3 rod 5294 0 0 -2139062144 #
face $8 -1 -1 $-1 $9 $10 $5 $-1 $11 forward single T -1.5874999999999999 -1.5874999999999999 -50 1.5874999999999999 1.5874999999999999 50 F #
fctd_mark-eye-attrib $-1 -1 $-1 $-1 $7 1 1 1 1 1 1 1 1 1 1 1 1 1 1 0 1 1 1 #
face $12 -1 -1 $-1 $13 $14 $5 $-1 $15 forward single T -1.5874999999999999 -1.5874999999999999 -50 1.5874999999999999 1.5874999999999999 -50 F #
loop $-1 -1 -1 $-1 $16 $17 $7 T -1.5874999999999999 -1.5874999999999999 -50 1.5874999999999999 1.5874999999999999 -50 unknown #
cone-surface $-1 -1 -1 $-1 0 0 0 0 0 1 1.5874999999999999 0 0 1 I I 0 1 1.5874999999999999 forward I I I I #
fctd_mark-eye-attrib $-1 -1 $-1 $-1 $9 1 1 1 1 1 1 1 1 1 1 1 1 1 1 0 1 1 1 #
face $18 -1 -1 $-1 $-1 $19 $5 $-1 $20 forward single T -1.5874999999999999 -1.5874999999999999 50 1.5874999999999999 1.5874999999999999 50 F #
loop $-1 -1 -1 $-1 $-1 $21 $9 T -1.5874999999999999 -1.5874999999999999 -50 1.5874999999999999 1.5874999999999999 -50 unknown #
plane-surface $-1 -1 -1 $-1 0 0 -50 0 0 -1 -1 0 0 forward_v I I I I #
loop $-1 -1 -1 $-1 $-1 $22 $7 T -1.5874999999999999 -1.5874999999999999 50 1.5874999999999999 1.5874999999999999 50 unknown #
coedge $-1 -1 -1 $-1 $17 $17 $21 $23 reversed $10 $-1 #
fctd_mark-eye-attrib $-1 -1 $-1 $-1 $13 1 1 1 1 1 1 1 1 1 1 1 1 1 1 0 1 1 1 #
loop $-1 -1 -1 $-1 $-1 $24 $13 T -1.5874999999999999 -1.5874999999999999 50 1.5874999999999999 1.5874999999999999 50 unknown #
plane-surface $-1 -1 -1 $-1 0 0 50 0 0 1 1 0 0 forward_v I I I I #
coedge $-1 -1 -1 $-1 $21 $21 $17 $23 forward $14 $-1 #
coedge $-1 -1 -1 $-1 $22 $22 $24 $25 reversed $16 $-1 #
edge $-1 -1 -1 $-1 $26 0 $26 6.2831853071795862 $21 $27 forward @7 unknown T -1.5874999999999999 -1.5874999999999999 -50 1.5874999999999999 1.5874999999999999 -50 #
coedge $-1 -1 -1 $-1 $24 $24 $22 $25 forward $19 $-1 #
edge $-1 -1 -1 $-1 $28 0 $28 6.2831853071795862 $24 $29 forward @7 unknown T -1.5874999999999999 -1.5874999999999999 50 1.5874999999999999 1.5874999999999999 50 #
vertex $-1 -1 -1 $-1 $23 $30 #
ellipse-curve $-1 -1 -1 $-1 0 0 -50 0 0 -1 1.5874999999999999 0 0 1 I I #
vertex $-1 -1 -1 $-1 $25 $31 #
ellipse-curve $-1 -1 -1 $-1 0 0 50 0 0 1 1.5874999999999999 0 0 1 I I #
point $-1 -1 -1 $-1 1.5874999999999999 0 -50 #
point $-1 -1 -1 $-1 1.5874999999999999 0 50 #
End-of-ACIS-data 